<?xml version="1.0" encoding="UTF-8"?>
<!DOCTYPE svg PUBLIC "-//W3C//DTD SVG 1.1//EN" "http://www.w3.org/Graphics/SVG/1.1/DTD/svg11.dtd">
<!-- Creator: CorelDRAW -->
<svg xmlns="http://www.w3.org/2000/svg" xml:space="preserve" width="11.25in" height="11.25in" version="1.1" style="shape-rendering:geometricPrecision; text-rendering:geometricPrecision; image-rendering:optimizeQuality; fill-rule:evenodd; clip-rule:evenodd"
viewBox="0 0 11250 11250"
 xmlns:xlink="http://www.w3.org/1999/xlink"
 xmlns:xodm="http://www.corel.com/coreldraw/odm/2003">
 <defs>
  <style type="text/css">
   <![CDATA[
    .fil0 {fill:#FFFFFF}
    .fil1 {fill:#FFFFFF;fill-rule:nonzero}
   ]]>
  </style>
 </defs>
 <g id="Layer_x0020_1">
  <metadata id="CorelCorpID_0Corel-Layer"/>
  <g id="_2497690493920">
   <path class="fil0" d="M1595.08 8128.26c-105.09,-35.89 -205.3,-88.09 -288.17,-162.68 0,0 221.54,-7.77 370.32,-100.92 30.04,-18.8 57.11,-41.09 78.8,-67.5 0,0 -62.91,-52.2 -137.81,-137.37 -78.5,-89.25 -170.17,-214.71 -216.41,-354.24 0,0 127.35,101.88 407.52,131.59 280.17,29.72 1131.34,-8.96 1013.52,201.4 -87.1,155.5 -471.16,57.56 -605.7,111.25 -23.85,9.52 -40.42,18.42 -50.65,26.72 -16.39,13.3 -17.28,25.03 -17.28,25.03l100.82 391.77c-43.2,4.7 -362.36,34.85 -654.96,-65.06zm567.06 -316.43c38.44,32.94 200.94,52.04 364.24,61.67 71.51,4.22 485.84,-1.8 500.69,102.25 10.06,70.48 -279.08,76.16 -453.03,80.9 -46.74,1.28 -98.64,0.25 -143.46,12.67 -60.31,16.73 -80.8,36.12 -72.3,55.07l-5.05 0.31 28.76 448.25c-1.5,-1.24 -3.06,-2.39 -4.67,-3.48 -4.43,-3 -9.15,-5.47 -14.11,-7.73 -44.22,-20.1 -103.09,-368.84 -103.26,-369.84l-97.81 -380.08zm201.6 320.78c41.66,46.8 254.51,88.04 472.35,75.42 938.29,-54.34 1200.57,-344.35 2784.43,-332.55 1583.87,11.8 1844.65,277.61 2793.39,332.55 216.07,12.51 427.23,-27.95 471.3,-74.28l-28.59 469.17 1.98 -2.77c0.44,7.65 4.78,12.85 4.78,12.85 -27.69,287.51 -274.42,359.19 -513.43,359.23 -552.61,0.08 -1124.19,-166.87 -1675.58,-244.68 -717.63,-101.3 -1422.28,-93.97 -2125.35,-16.19 -467.44,51.71 -1267.58,270.77 -1677.57,260.52 -229.73,-5.74 -458.24,-82.83 -484.82,-358.87 0,0 4.29,-5.15 4.77,-12.75l2.58 3.62 -30.24 -471.26zm6526.83 -5.94c12.49,-21.87 -13.26,-44.5 -93.91,-63.07 -66.08,-15.22 -587.17,6.37 -573.73,-87.83 14.85,-104.06 429.18,-98.04 500.7,-102.25 161.07,-9.5 317.14,-30.88 358.18,-63.11l-91.76 381.52c-0.17,1 -59.04,349.74 -103.25,369.84 -6.25,2.83 -11.39,5.79 -15.58,8.77l-2.75 2.06 27.15 -445.62 -5.04 -0.3zm193.04 -349.27c-9.07,-8.67 -25.57,-17.87 -50.74,-27.59 -134.54,-53.69 -518.59,44.25 -605.69,-111.25 -117.83,-210.35 733.35,-171.68 1013.51,-201.4 65.12,-6.9 121.98,-17.71 170.91,-30.22 161.58,-41.34 236.61,-101.37 236.61,-101.37 -43.06,129.93 -126.51,252.02 -216.41,354.24 -74.9,85.17 -137.81,137.37 -137.81,137.37 21.69,26.41 48.76,48.69 78.8,67.5 148.78,93.15 370.32,100.92 370.32,100.92 -210.28,189.25 -539.06,240.24 -810.57,235.34 -69.07,-1.24 -117.5,-5.96 -132.58,-7.6l93.42 -388.43c0,0 9.26,-9.32 -9.76,-27.5zm-6314.11 896.28c1.35,-13.1 8.44,-23.67 19.57,-30.54 10.48,-6.47 22.41,-8.54 34.57,-7.29 12.19,1.25 23.34,5.65 32.41,13.98 9.76,8.97 14.79,20.85 13.43,34.11 -1.35,13.19 -8.8,23.66 -19.95,30.61 -10.54,6.56 -22.44,8.85 -34.75,7.59 -12.32,-1.26 -23.65,-5.87 -32.57,-14.56 -9.34,-9.1 -14.06,-20.87 -12.72,-33.89zm5319.89 -220.65l-32.33 -3.07 4.69 -49.57 19.59 1.5c14.32,1.1 28.65,2.11 42.99,2.87 12.63,0.67 25.27,1.07 37.92,1.2l31.12 0.33 -114.04 242.67c9.02,-6.88 17.55,-17.24 24.17,-25.96l9.8 -12.91 45.93 21.66 -13.42 19.4c-12,17.35 -26.87,34.68 -44.91,45.98 -16.38,10.26 -34.75,15.07 -54.02,13.24 -13.06,-1.24 -26.22,-4.9 -36.5,-13.39 -10.87,-8.98 -16.28,-21.59 -14.95,-35.66 0.4,-4.26 1.68,-8.52 3.07,-12.31 1.44,-4.26 3.31,-8.66 5.3,-13.14l85.59 -182.84zm138.26 222.32c1.02,0.06 1.99,0.1 2.9,0.13 6.47,0.19 13.64,-0.61 19.19,-4.22 1.73,-1.12 3.44,-2.28 3.51,-4.46 0.03,-1 -0.76,-2.29 -1.28,-3.07 -3.61,-5.38 -15.33,-15.02 -20.21,-19.15l-2.96 -2.4c-17.55,-14.58 -37.45,-35.33 -36.73,-59.75 0.58,-19.87 10.31,-35.84 26.92,-46.59 16.78,-10.87 36.77,-14.19 56.46,-13.61 14.96,0.44 30.73,2.82 44.14,9.81 13.97,7.29 24.16,19.39 23.68,35.78 -0.3,10.24 -4.53,19.42 -12.56,25.85 -7.44,5.95 -16.63,8.33 -26.04,8.06 -1.22,-0.04 -2.44,-0.11 -3.66,-0.24 6.08,5.31 11.74,10.99 15.78,16.67 7.06,9.95 10.92,21.5 10.56,33.73 -0.69,23.25 -13.02,41.39 -31.85,54.22 -19.69,13.43 -42.83,18.55 -66.45,17.85 -18.59,-0.55 -37.49,-4.2 -53.67,-13.75 -15.55,-9.18 -27.29,-23.11 -26.72,-41.98 0.32,-10.74 4.91,-20.33 13.41,-26.94 7.83,-6.09 17.42,-8.41 27.21,-8.12 9.48,0.28 18.79,2.74 26.37,8.63 8.51,6.61 13.16,16.25 12.85,27.04 -0.07,2.22 -0.35,4.4 -0.85,6.51zm40.99 -99.07c-0.57,-2.17 -0.91,-4.41 -1.03,-6.71 -1.83,0.13 -3.75,0.4 -5.37,0.88 1.84,1.91 4.06,3.89 6.41,5.83zm-5340.88 107.5c-0.72,-13.11 4.64,-24.74 14.53,-33.24 9.34,-8.03 20.79,-11.94 33,-12.62 12.24,-0.68 23.94,1.92 34.21,8.72 11.06,7.33 17.89,18.27 18.63,31.58 0.73,13.15 -5.04,24.78 -14.89,33.34 -9.38,8.15 -20.77,12.27 -33.13,12.96 -12.37,0.69 -24.27,-2.08 -34.45,-9.26 -10.65,-7.52 -17.17,-18.39 -17.89,-31.47zm159.72 -10.15c-1.93,-12.99 2.35,-25.07 11.43,-34.44 8.56,-8.85 19.6,-13.8 31.7,-15.6 12.09,-1.8 24.05,-0.28 34.87,5.55 11.69,6.28 19.49,16.56 21.44,29.75 1.92,13.03 -2.74,25.15 -11.77,34.56 -8.59,8.97 -19.56,14.13 -31.8,15.94 -12.21,1.81 -24.39,0.13 -35.16,-6.07 -11.3,-6.51 -18.78,-16.74 -20.7,-29.69zm172.5 -34.04l30.41 -213.72 -28.43 5.19 -9.07 -49.74 148.34 -27.09c26.54,-4.85 58.53,-7.64 84.33,2.01 24.25,9.07 39.32,27.69 43.96,53.09 4.9,26.81 -4.94,50.23 -24.57,68.62 -6.13,5.74 -13,10.86 -20.35,15.42 1.8,0.8 3.58,1.66 5.33,2.57 20.41,10.68 33.67,27.87 37.82,50.58 5.74,31.42 -7.1,58.08 -31.15,78.2 -27.39,22.9 -64.78,34.46 -99.35,40.77l-163.28 29.82 -8.99 -49.33 35 -6.39zm398.17 -71.67c12.49,-2.91 21.77,-10.19 29.31,-20.7 11.06,-15.44 16.37,-35.43 18.98,-53.9l11.33 -86.24 77.84 -15.3 -18.71 143.75c5.87,-8.88 10.09,-20.76 13.03,-30.63l4.9 -16.45 48.35 6.71 -4.19 20.83c-4.12,20.46 -12.05,39.81 -25.67,55.81 -12.89,15.13 -29.2,25.41 -48.74,29.26 -12.37,2.43 -25.54,2.87 -37.56,-1.45 -5.29,-1.91 -9.98,-4.61 -13.88,-8.07 -4.16,4.05 -8.56,7.84 -13.21,11.28 -13.3,9.85 -28.19,16.48 -44.41,19.67 -14.49,2.85 -30.05,3.48 -44.11,-1.67 -14.72,-5.4 -25.15,-16.37 -28.2,-31.9 -0.62,-3.16 -0.88,-6.38 -0.85,-9.59 0.02,-2.96 0.24,-5.93 0.4,-8.88l0.04 -0.67 10.72 -87.17 -30.03 5.9 -9.67 -49.19 19.61 -3.86c13.63,-2.68 27.22,-5.64 40.71,-8.94 11.65,-2.85 23.25,-5.95 34.7,-9.49l29.65 -9.18 -20.3 160.09zm226 -261.07c-2.27,-11.61 1.22,-22.65 8.98,-31.49 7.11,-8.11 16.65,-13.02 27.17,-15.07 10.52,-2.05 21.16,-1.01 30.72,3.98 10.26,5.37 17.37,14.26 19.6,25.67 2.24,11.45 -1.05,22.46 -8.56,31.32 -7,8.26 -16.28,13.31 -26.85,15.38 -10.59,2.07 -21.08,0.96 -30.78,-3.89 -10.54,-5.28 -17.99,-14.26 -20.27,-25.9zm-3.71 119.2l-29.43 5.75 -9.58 -49.23 19.61 -3.83c13.69,-2.67 27.32,-5.61 40.87,-8.86 11.78,-2.83 23.5,-5.97 35.07,-9.59l30.37 -9.49 -21.94 149.13c6.63,-8.99 11.29,-20.09 14.67,-30.59l5.22 -16.23 49.25 7.58 -5.15 21.17c-5.18,21.31 -14.8,40.56 -29.71,56.73 -14.09,15.29 -31.38,26.23 -51.91,30.24 -12.31,2.41 -24.97,1.96 -36.44,-3.5 -12.34,-5.87 -20.48,-16.26 -23.1,-29.68 -0.81,-4.18 -0.96,-8.49 -0.74,-12.73 0.24,-4.57 0.69,-9.13 1.27,-13.82l11.65 -83.05zm184.41 -148.56l-31.86 6.4 -9.8 -48.82 19.18 -4.21c14.02,-3.08 28.03,-6.25 41.98,-9.67 12.29,-3.01 24.52,-6.28 36.67,-9.8l29.88 -8.66 -39.1 265.25c6.65,-9.19 11.83,-21.58 15.64,-31.83l5.65 -15.18 50.22 7.47 -7.24 22.44c-6.48,20.08 -15.71,40.97 -29.72,56.99 -12.78,14.61 -28.83,24.44 -47.89,28.28 -12.85,2.58 -26.53,2.88 -38.81,-2.28 -13.01,-5.46 -21.83,-15.96 -24.62,-29.83 -0.84,-4.18 -0.85,-8.6 -0.63,-12.67 0.17,-4.52 0.68,-9.26 1.3,-14.12l29.15 -199.76zm279.74 199.85c-3.47,2.9 -7.15,5.59 -11.03,8.03 -12.35,7.78 -25.99,12.6 -40.41,14.78 -22.03,3.32 -43.47,-0.24 -62.43,-12.11 -18.98,-11.88 -30.93,-29.32 -34.27,-51.5 -2.33,-15.44 -0.07,-30.87 5.07,-45.52 5.61,-15.99 14.42,-30.67 24.87,-43.96 11.52,-14.65 25.07,-27.6 40.87,-37.57 14.95,-9.43 31.26,-15.87 48.76,-18.51 11.65,-1.76 23.94,-2.09 35.4,0.99l12.96 -65.71 -32.59 4.91 -7.5 -49.58 19.78 -2.98c13.93,-2.1 27.81,-4.51 41.61,-7.28 12.93,-2.59 25.81,-5.39 38.64,-8.45l30.24 -7.22 -51.53 262.52c6.66,-9.18 11.22,-20.36 14.48,-31.08l5 -16.43 52.24 7.57 -6.66 22.2c-6.2,20.66 -15.54,41.27 -30.05,57.46 -13.45,15.01 -30.26,24.96 -50.26,27.97 -12.84,1.94 -26.17,1.35 -37.78,-5.01 -1.94,-1.06 -3.74,-2.24 -5.42,-3.53zm188.49 -277.44c-1.41,-11.72 2.91,-22.53 11.29,-30.75 7.69,-7.55 17.56,-11.74 28.19,-13.02 10.65,-1.28 21.19,0.54 30.36,6.25 9.83,6.11 16.26,15.51 17.64,27.05 1.38,11.56 -2.72,22.34 -10.85,30.6 -7.57,7.7 -17.21,12.07 -27.91,13.35 -10.74,1.29 -21.11,-0.6 -30.42,-6.15 -10.12,-6.04 -16.9,-15.54 -18.31,-27.32zm-12.52 118.6l-29.76 3.56 -5.94 -49.78 19.84 -2.38c13.85,-1.66 27.67,-3.58 41.44,-5.83 11.95,-1.95 23.87,-4.21 35.67,-6.96l31 -7.24 -32.9 147.11c7.28,-8.48 12.74,-19.2 16.89,-29.43l6.41 -15.8 48.54 11.2 -6.68 20.72c-6.73,20.88 -17.76,39.35 -33.82,54.39 -15.19,14.21 -33.23,23.85 -54.02,26.33 -12.41,1.48 -25.06,0.09 -36.06,-6.18 -11.88,-6.76 -19.23,-17.74 -20.85,-31.31 -0.5,-4.22 -0.33,-8.53 0.2,-12.75 0.57,-4.53 1.36,-9.05 2.29,-13.68l17.76 -81.97zm180.65 -19.03l-30.49 2.44 -4 -49.99 19.93 -1.59c14.77,-1.18 29.6,-2.54 44.3,-4.47 11.01,-1.45 22,-3.26 32.85,-5.61l31.29 -6.77 -2.77 11.26c11.7,-5.53 24.17,-8.88 37.29,-9.93 15.66,-1.25 32,0.03 46.16,7.37 14.55,7.54 23.94,20.2 25.25,36.68 0.33,4.13 0.06,8.37 -0.45,12.23 -0.41,3.87 -1.19,7.93 -2.17,11.95l-0.2 0.74 -17.11 59.87c4.22,-6.74 7.78,-14.22 10.65,-20.82l6.8 -15.65 48.21 12.43 -7.92 20.88c-7.5,19.76 -18.13,39.84 -33.93,54.23 -14.81,13.5 -32.76,20.76 -52.71,22.35 -12.24,0.98 -24.94,-0.28 -35.86,-6.29 -11.85,-6.53 -19.3,-17.32 -20.39,-30.87 -0.33,-4.09 -0.04,-8.24 0.56,-12.29 0.56,-3.8 1.21,-7.57 2.16,-11.31l0.15 -0.55 23.78 -84.09c0.29,-1.33 0.55,-2.67 0.77,-4.01 -0.33,0.02 -0.62,0.04 -0.87,0.06 -12.06,0.96 -22.66,8.57 -31.03,16.79 -11.55,11.33 -19.26,24.74 -23.24,40.44l-24.29 95.89 -79.86 6.39 37.13 -147.76zm293.71 26.96c-3.55,-6.86 -5.54,-14.28 -5.95,-22.06 -1.3,-24.8 11.56,-45.4 30.26,-60.74 19.93,-16.34 43.41,-24.77 69.11,-26.12 16.59,-0.87 33.8,0.61 49.27,7.04 4.73,1.97 9.16,4.35 13.3,7.11 1.96,-2.86 4.11,-5.56 6.45,-8.02 9.01,-9.48 20.52,-14.91 33.59,-15.6 9.31,-0.49 18.46,1.4 26.33,6.55 8.94,5.85 14.51,14.9 15.07,25.61 0.53,10.04 -3.1,19.38 -10.42,26.3 -6.8,6.44 -15.5,9.67 -24.79,10.16 -3.62,0.19 -7.17,-0.07 -10.63,-0.78 -1.33,4.8 -2.67,9.69 -4.31,14.38 -7.51,21.5 -19.22,41.75 -37.74,55.56 -4.66,3.48 -9.59,6.42 -14.72,8.91 10.39,1.8 20.49,5.01 29.14,10.52 15.88,10.13 23.92,26.14 24.9,44.77 1.57,29.91 -15.65,52.87 -39.93,68.59 -28.09,18.18 -62.27,25.2 -95.25,26.94 -24.57,1.3 -51.66,-0.23 -74.52,-10.1 -20.71,-8.94 -36.43,-24.56 -37.66,-48 -0.81,-15.52 5.76,-29.15 16.89,-39.76 3.55,-3.38 7.64,-6.53 12.03,-9.46 -3.66,-5.59 -5.82,-12.06 -6.19,-19.13 -0.82,-15.46 6.85,-28.58 17.72,-38.94 5.41,-5.15 11.56,-9.7 18.06,-13.73zm436.46 26.37l67.65 -204.83 -29.9 0.02 -0.06 -50.56 152.87 -0.11c29.76,-0.02 63.33,3.71 89.58,18.79 24.04,13.81 38.06,35.27 38.09,63.24 0.03,34.55 -20.37,59.37 -49.45,75.96 -34,19.39 -75.08,25.1 -113.69,25.13l-39.85 0.03 -23.7 72.25 29.8 -0.02 0.04 50.15 -157.52 0.12 -0.02 -50.14 36.15 -0.04zm449.5 -33.13l45.86 22.6 -12.91 19.01c-11.14,16.39 -25.68,29.31 -43.42,38.13 -17.8,8.85 -36.93,12.63 -56.78,11.72 -24.96,-1.14 -48.48,-8.63 -67.15,-25.69 -18.34,-16.75 -27.01,-38.53 -25.88,-63.3 0.65,-14.08 4.69,-27.43 11.46,-39.77 7.17,-13.06 17.07,-24.31 28.34,-33.97 15.21,-13.04 32.28,-23.5 51.19,-30.23 18.76,-6.69 38.22,-9.44 58.12,-8.53 16.24,0.74 32.32,4.65 45.59,14.42 13.35,9.83 21.17,24.05 20.41,40.77 -1.28,27.83 -23.49,43.79 -47.69,52.48 -2.35,0.84 -4.73,1.63 -7.14,2.35zm-80.25 8.55c-0.44,1.44 -0.86,2.89 -1.25,4.34 -0.98,3.68 -1.78,7.61 -1.95,11.42 -0.19,4.05 0.1,8.9 3.29,11.83 4.41,4.06 13.24,5.14 18.9,5.4 9.66,0.44 18.48,-1.79 27.01,-6.34 9.68,-5.17 17.4,-12.63 23.68,-21.57l9.33 -13.27c-24.91,7.29 -53.02,8.82 -79.01,8.18zm196.02 -59.2l-28.85 -1.57 2.72 -50.07 19.97 1.09c13.64,0.74 27.31,1.26 40.98,1.38 11.08,0.09 22.2,-0.1 33.26,-0.84l31.8 -2.13 -2.92 7.23c7.96,-2.44 16.28,-3.59 24.82,-3.12 9.93,0.54 19.52,3.3 27.63,9.19 9.21,6.69 15.24,16.57 14.61,28.2 -0.6,10.98 -5.42,20.69 -14.32,27.24 -8.41,6.19 -18.6,8.09 -28.85,7.53 -10.56,-0.57 -20.07,-4.71 -28.01,-11.67 -4.95,3.15 -11.63,10.2 -13.93,12.81 -12.31,13.96 -21.21,30.73 -27.64,48.12l-26.81 72.5 -79.03 -4.32 54.56 -141.57zm203.94 12.19l-33.46 -2.67 3.94 -49.18 50.76 4.06c13.57,-28.28 31.45,-56.44 55.33,-76.33 24.52,-20.43 53.04,-30.04 84.9,-27.49 13.39,1.07 27.11,4.42 38.07,12.54 11.61,8.6 18.15,21.03 16.98,35.57 -0.84,10.51 -5.23,20 -13.7,26.46 -8.02,6.12 -17.72,8.21 -27.65,7.42 -9.57,-0.76 -19.09,-3.38 -26.69,-9.48 -6.49,-5.21 -10.58,-12.16 -11.89,-19.96 -2.98,1.99 -5.68,4.61 -8.21,7.59 -9.89,11.63 -19.77,31.66 -27.78,50.01l38.59 3.09 -3.94 49.17 -54.7 -4.37 -23.57 54.96c-17.09,39.85 -43.85,98.39 -74.67,129.46 -24.11,24.31 -53.83,35.91 -88.02,33.19 -13.06,-1.04 -25.97,-4.47 -36.65,-12.32 -11.37,-8.37 -18.25,-20.41 -17.09,-34.81 0.89,-11.06 6.03,-20.72 15.33,-26.91 8.36,-5.56 18.26,-7.24 28.14,-6.46 9.02,0.72 17.58,3.65 24.52,9.59 5.96,5.1 9.75,11.73 10.97,19.12 5.38,-3.18 9.96,-7.86 13.84,-12.89 4.32,-5.41 9.2,-16.6 11.99,-22.78 7.77,-17.21 14.74,-34.97 21.5,-52.6 10.77,-28.08 21.73,-56.15 33.17,-84zm287.24 82.69l44.1 25.94 -14.32 18.01c-12.33,15.51 -27.8,27.31 -46.14,34.78 -18.33,7.46 -37.87,9.83 -57.5,7.45 -24.8,-3 -47.69,-12.22 -65.03,-30.61 -16.99,-18.02 -24.07,-40.51 -21.09,-65.06 1.7,-13.99 6.71,-27.01 14.39,-38.81 8.13,-12.48 18.83,-22.95 30.79,-31.75 16.14,-11.88 33.94,-21.02 53.31,-26.33 19.2,-5.27 38.82,-6.56 58.59,-4.17 16.13,1.95 31.88,7.04 44.39,17.77 12.63,10.85 19.33,25.49 17.31,42.18 -3.34,27.67 -26.69,41.92 -51.46,48.78 -2.41,0.67 -4.85,1.27 -7.33,1.82zm-80.64 2.54c-0.54,1.4 -1.07,2.81 -1.56,4.22 -1.26,3.59 -2.35,7.46 -2.81,11.24 -0.48,4.03 -0.55,8.89 2.41,12.06 4.07,4.37 12.84,6.1 18.44,6.78 9.59,1.16 18.57,-0.41 27.4,-4.3 10.03,-4.43 18.28,-11.28 25.21,-19.73l10.28 -12.54c-25.38,5.41 -53.5,4.85 -79.37,2.26zm292.46 -37.59c-3.42,0.32 -6.79,1.11 -10.15,2.34 -7.57,2.78 -14.41,7.6 -20.33,13 -9.67,8.82 -17.13,20.49 -23,32.09 -6.07,12 -11.1,25.17 -12.84,38.57 -0.26,2.02 -0.61,5.91 0.97,7.6 2.73,2.92 11.03,4.43 14.72,4.91 10.97,1.43 21.62,0.4 32.07,-3.24 11.89,-4.15 22.57,-11.46 31.85,-19.87l12.41 -11.25 39.85 30.87 -17.11 16.04c-14.93,13.98 -32.1,25.47 -51.65,31.86 -19.35,6.32 -39.81,7.17 -59.89,4.55 -23.31,-3.04 -43.76,-12.74 -59.43,-30.39 -15.47,-17.42 -22.27,-38.53 -19.26,-61.67 1.73,-13.26 6.98,-25.56 14.32,-36.66 8.09,-12.22 18.68,-22.7 30.12,-31.79 16.07,-12.78 34,-22.67 53.57,-28.94 18.36,-5.89 37.46,-8.3 56.65,-5.8 17.16,2.24 33.99,7.65 47.56,18.72 13.44,10.96 21.56,25.82 19.27,43.42 -1.43,11 -6.97,20.31 -16.09,26.65 -8.84,6.14 -19.2,8.12 -29.81,6.73 -9.54,-1.24 -18.66,-4.61 -25.72,-11.33 -8.01,-7.62 -11.48,-17.99 -10.06,-28.92 0.35,-2.66 1.02,-5.16 1.96,-7.49zm131.15 23.19l-25.25 -3.95 7.47 -47.95 42.5 6.65 21.65 -40.23 78.31 12.24 -21.32 40.29 29.22 4.57 -7.52 47.94 -46.72 -7.31 -42.28 77.78c9.33,-7.14 18.25,-16.65 25.66,-25.06l10.44 -11.86 44.92 23.91 -15.11 18.82c-13.85,17.26 -30.61,34.2 -50.08,45.07 -17.46,9.76 -36.41,14.17 -56.28,11.07 -12.61,-1.97 -24.61,-6.44 -34.17,-15.13 -10.2,-9.28 -15.36,-21.88 -13.21,-35.62 0.64,-4.1 1.89,-8.09 3.44,-11.93 1.62,-4 3.45,-7.91 5.56,-11.88l42.75 -77.42zm557.62 -49.96l17.1 -6.22 41.17 8.13 -54.29 101.6 -46.55 -15.35 5.67 -18.68c0.5,-1.63 1.06,-3.24 1.54,-4.79 0.05,-0.19 0.09,-0.47 0.15,-0.74 1.95,-9.86 1.33,-19.19 -5.06,-27.31 -7.63,-9.68 -20.58,-14.23 -32.25,-16.54 -11.94,-2.36 -24.26,-2.23 -35.47,2.93 -6.59,3.03 -12.05,7.09 -13.52,14.52 -0.81,4.09 0.82,7.39 3.26,10.61 7.89,10.38 28.51,24.49 39.27,31.85 19.57,13.4 47.47,33.57 60.05,54 10.78,17.51 13.38,37.16 9.4,57.23 -6.5,32.84 -27.21,56.22 -56.66,71.35 -31.57,16.21 -65.98,18.84 -100.54,12 -14.34,-2.83 -28.39,-7.35 -41.28,-14.33 -8.57,-4.64 -16.44,-10.26 -23.61,-16.74l-23.17 7.43 -42 -8.3 57.88 -110.16 44.61 17.54 -4.36 22.03c-2.44,12.31 -0.83,23.41 6.67,33.59 8.23,11.16 20.08,16.81 33.48,19.46 16.3,3.22 33.47,3.28 48.73,-4 10.82,-5.16 18.06,-12.3 20.42,-24.24 0.56,-2.81 0.57,-5.57 -0.01,-8.19 -0.63,-2.59 -2,-5 -3.76,-7.24 -6.57,-8.39 -19.89,-17.81 -28.62,-23.79 -4.92,-3.37 -9.88,-6.74 -14.71,-10.24l-0.43 -0.32c-16.87,-12.91 -34.67,-29.06 -45.19,-47.75 -9.48,-16.84 -12.86,-35.26 -9.09,-54.29 5.57,-28.13 22.54,-48.93 47.63,-62.45 26.15,-14.1 54.65,-16.85 83.64,-11.11 12.62,2.5 24.72,6.76 36.1,12.76 8.4,4.43 16.33,9.82 23.8,15.75zm195.97 198.2c-0.07,0.06 -0.13,0.11 -0.19,0.17 -4.13,3.64 -8.45,7.26 -12.93,10.72 1.7,2.27 3.25,4.68 4.61,7.25 6.62,12.44 8,26.15 5.45,39.93 -0.78,4.18 -1.75,8.32 -2.91,12.41 6.37,-5.31 12.19,-11.69 17.26,-17.87l11.4 -13.86 39.8 26.12 -11.02 16.72c-11.7,17.76 -27.03,31.7 -46.12,41.07 -18.01,8.85 -37.68,12.82 -57.59,9.14 -12.24,-2.26 -23.26,-7.83 -31.21,-17.57 -8.24,-10.11 -11.26,-22.48 -8.89,-35.28 0.65,-3.52 1.76,-6.91 3.11,-10.2 1.32,-3.22 2.78,-6.36 4.56,-9.36l0.34 -0.56 14.4 -22.57c-6.84,0.67 -13.71,0.67 -20.56,-0l-42.53 76.46 -78.09 -14.46 129.93 -235.61 -29.87 -5.54 9.06 -49 19.42 3.28c14.53,2.46 29.1,4.86 43.7,6.87 11.13,1.53 22.28,2.81 33.47,3.8l30.35 2.67 -85.48 157.5c0.96,0.28 1.91,0.56 2.86,0.86 5.91,-3.61 13.79,-10.74 17.03,-13.8 4.57,-4.29 9.19,-8.58 13.93,-12.67l0.47 -0.39c8.07,-6.54 17.22,-11.25 27.32,-13.75 10.43,-2.58 21.13,-2.53 31.65,-0.57 10.58,1.96 20.56,6.1 28.35,13.42 8.82,8 13.93,19.05 11.69,31.2 -1.94,10.51 -7.2,19.61 -16.16,25.58 -8.8,5.87 -19.17,7.3 -29.46,5.4 -8.47,-1.57 -16.32,-5.15 -22.4,-11.36 -1.85,-1.89 -3.46,-3.95 -4.78,-6.13zm165.04 -97.77c1.73,-11.71 8.71,-20.95 18.98,-26.69 9.38,-5.24 20.07,-6.71 30.63,-5.14 10.61,1.58 20.3,6.11 27.64,14.03 7.85,8.46 11.59,19.27 9.89,30.73 -1.72,11.54 -8.49,20.83 -18.53,26.67 -9.31,5.42 -19.84,7.1 -30.45,5.52 -10.68,-1.59 -20.18,-6.13 -27.7,-13.95 -8.14,-8.45 -12.2,-19.5 -10.46,-31.18zm-43.32 111.11l-29.63 -4.4 7.36 -49.61 19.78 2.94c13.8,2.05 27.63,3.84 41.5,5.3 12.04,1.26 24.14,2.23 36.24,2.67l31.82 1.18 -70.5 133.27c9.25,-6.26 17.35,-15.17 24.04,-23.94l10.35 -13.57 43.87 23.61 -11.9 18.22c-11.99,18.37 -27.49,33.29 -46.95,43.56 -18.39,9.71 -38.34,14.25 -59.05,11.17 -12.4,-1.84 -24.17,-6.49 -33.16,-15.46 -9.66,-9.64 -13.89,-22.21 -11.87,-35.71 0.63,-4.2 1.93,-8.3 3.55,-12.22 1.74,-4.22 3.7,-8.38 5.81,-12.61l38.72 -74.39zm218.52 -79.56l-32.25 -3.91 6 -49.43 19.53 2.02c14.28,1.47 28.58,2.86 42.9,3.99 12.61,0.99 25.24,1.72 37.89,2.19l31.09 1.15 -120.34 239.61c9.19,-6.64 18,-16.78 24.83,-25.31l10.13 -12.65 45.37 22.85 -13.93 19.05c-12.45,17.02 -27.78,33.96 -46.09,44.78 -16.71,9.86 -35.06,14.16 -54.34,11.82 -13.02,-1.58 -26.09,-5.58 -36.15,-14.34 -10.62,-9.26 -15.73,-22.05 -14.02,-36.07 0.51,-4.18 1.89,-8.3 3.39,-12.22 1.66,-4.35 3.56,-8.62 5.65,-12.99l90.34 -180.53zm-4574 188.96l26.41 -4.82c10.07,-1.84 21.01,-4.43 30.39,-8.63 5.47,-2.45 10.93,-5.72 14.94,-10.25 5.65,-6.39 9.11,-14.37 11.27,-22.56 2.34,-8.84 3.13,-17.87 1.48,-26.9 -1.46,-7.96 -4.26,-14.69 -12.27,-17.49 -14.17,-4.94 -42.12,-0.67 -56.5,1.95l-3.21 0.59 -12.52 88.11zm20.09 -140.48l13.44 -2.45c16.55,-3.02 36.96,-9.15 48.06,-22.74 9.63,-11.8 10.02,-27 7.39,-41.4 -0.45,-2.48 -2.41,-10.94 -4.5,-12.52 -6.7,-2.35 -30.82,1.62 -37.94,2.92l-16.72 3.06 -9.7 73.13zm954.94 -144.37c-6.54,0.99 -12.24,3.37 -17.34,7.57 -6.34,5.22 -11.09,12.88 -14.54,20.01 -2.3,5 -4.26,10.44 -5.92,15.89 -2.06,6.75 -3.64,13.66 -4.91,20.6l-0.09 0.44c-1.81,8.79 -3.5,17.81 -4.45,26.74 -0.4,3.79 -0.92,9.18 -0.35,12.96 0.27,1.76 0.95,5.38 2.65,6.48 2.59,1.68 8.9,1.09 11.7,0.67 8.27,-1.25 15.28,-4.63 21.28,-10.46 7.54,-7.32 12.27,-17.38 15.43,-27.47 4.35,-13.03 7.07,-26.41 8.75,-39.84 1.05,-8.35 2.49,-20.74 1.23,-29.1 -0.14,-0.93 -0.54,-3.46 -1.53,-4.04 -2.53,-1.52 -9.2,-0.85 -11.9,-0.45zm698.52 83.85c-4.49,3.11 -8.68,6.79 -11.83,11.15 -2,2.76 -4.19,6.54 -4,10.09 0.2,3.76 2.77,5.25 6.03,6.76 10.36,4.81 26.67,4.89 37.81,4.3 19.31,-1.02 40.68,-4.43 57.82,-13.87 4.25,-2.34 14.67,-8.57 14.35,-14.63 -0,-0.09 -0.01,-0.19 -0.02,-0.3 -5.7,-1.9 -20.3,-2.06 -25.25,-2.06l-23.46 0 -2.98 -0.04c-14.13,0.07 -32.98,0.45 -48.47,-1.41zm41.25 -105.48c2,0.81 4.99,0.84 6.85,0.74 4.56,-0.24 10.07,-0.96 14.21,-3.05 2.67,-1.35 4.66,-3.36 6.25,-5.86 4.02,-7.11 7.13,-14.66 9.43,-22.49 1.39,-4.76 3.33,-12.07 3.07,-17.07 -0.02,-0.43 -0.1,-1.39 -0.23,-1.65 -2.22,-1.55 -7.26,-1.57 -9.78,-1.43 -9.4,0.49 -15.42,6.03 -20.41,13.68 -7.3,11.21 -9.73,23.98 -9.38,37.13zm498.31 -86.23l14.35 -0.01c20.86,-0.02 42.6,-4.04 58.75,-18.16 14.33,-12.52 19.53,-28.87 19.51,-47.63 -0,-4.53 -0.55,-8.54 -4.63,-10.99 -8.39,-5.03 -27.58,-5.65 -37.05,-5.65l-24.12 0.02 -26.82 82.42zm263.38 46.83c7,-1.09 13.73,-2.91 19.52,-5.79 5.84,-2.91 10.46,-6.36 11.43,-12.67 -1.25,-0.19 -2.59,-0.29 -3.35,-0.32 -7.13,-0.33 -13.71,4.3 -18.69,8.91 -3.14,2.91 -6.11,6.26 -8.91,9.88zm610.3 40.34c7.06,-0.57 13.91,-1.88 19.9,-4.32 6.05,-2.46 10.91,-5.56 12.35,-11.79 -1.23,-0.29 -2.56,-0.48 -3.32,-0.57 -7.09,-0.85 -13.99,3.27 -19.3,7.5 -3.35,2.67 -6.57,5.79 -9.63,9.19z"/>
   <g>
    <g>
     <path class="fil0" d="M2606.59 3392.76c227.88,197.5 374.37,439.88 424.47,744.94 49.96,304.17 -2.58,625.62 -72.03,922.7 -75.58,323.28 -176.8,640.07 -249.7,964.09 -68.38,303.9 -115,625.78 -67.83,936.37 61.89,407.54 239.67,737.41 554.79,1001.27 74.41,62.31 153.94,119.13 236.52,171.52 288.92,-54.64 548.36,-125.71 903.56,-179.51 -277.62,-114.53 -566.68,-250.97 -776.28,-426.49 -209.89,-175.74 -317.39,-382.24 -358.34,-651.87 -35.59,-234.34 8.85,-497.63 60.43,-726.89 72.5,-322.2 173.4,-637.64 248.65,-959.5 18.87,-80.76 35.7,-161.15 50.07,-241.03l4128.23 0c14.37,79.88 31.19,160.27 50.07,241.03 75.25,321.86 176.16,637.3 248.65,959.5 51.59,229.26 96.02,492.55 60.43,726.89 -40.95,269.63 -148.45,476.13 -358.34,651.87 -214.85,179.9 -513.16,318.75 -797.07,435.04 361.86,53.6 624.83,121.68 919.44,174.06 84.33,-53.25 165.53,-111.08 241.41,-174.62 315.12,-263.86 492.89,-593.72 554.79,-1001.27 47.17,-310.59 0.55,-632.47 -67.83,-936.37 -72.91,-324.02 -174.13,-640.8 -249.7,-964.09 -69.45,-297.07 -121.99,-618.53 -72.03,-922.7 50.1,-305.06 196.59,-547.44 424.47,-744.94 -13.91,-10.54 -27.54,-21.25 -40.69,-31.76 -88.61,-70.87 -171.48,-150.53 -246.58,-235.54 -216.98,-245.59 -368.5,-535.99 -432.06,-856.44 -227.39,98.7 -471.09,172.48 -719.23,182.09 -204.5,7.92 -389.84,-28.59 -581.07,-98.58 -163.73,-59.92 -318.92,-139.27 -481.19,-202.37 -169.98,-66.1 -334.04,-106.92 -517.6,-106.92 -183.55,0 -347.57,40.82 -517.54,106.94 -162.24,63.11 -317.4,142.48 -481.1,202.41 -191.23,70 -376.56,106.51 -581.06,98.59 -248.18,-9.62 -491.94,-83.44 -719.37,-182.17 -63.56,320.45 -215.08,610.85 -432.06,856.44 -75.1,85 -157.96,164.66 -246.58,235.54 -13.15,10.51 -26.77,21.22 -40.69,31.76zm3015.15 5881.75c-266.22,-230.31 -669.55,-393.73 -1094.13,-560.7 7.11,-0.85 14.15,-1.65 21.11,-2.42 417.24,164.23 812.43,326 1076.28,552.8 255.97,-220.03 635.56,-378.85 1038.96,-538.09l10.41 1.44 9.63 1.38c-410.41,161.78 -797.56,322.22 -1055.74,545.58l-3.26 2.82 -3.26 -2.82zm-2287.62 -1123.12c-63.81,-43.02 -124.75,-88.34 -182.13,-136.38 -128.76,-107.81 -240.67,-230.43 -332.04,-371.71 0.98,-1.57 1.96,-3.13 2.87,-4.75 0.99,-1.77 1.74,-3.48 2.59,-5.21 91.33,142.33 203.59,265.69 332.98,374.02 59.7,49.98 123.28,97.02 189.98,141.59l-14.26 2.45zm-585.75 -630.8c-83.7,-159.83 -143.51,-341.46 -175.09,-549.39 -72.43,-476.91 66.15,-982.98 201.18,-1476.1 217.59,-794.63 425.96,-1555.56 -276.83,-2102.56l-5.6 -4.36 6.01 -3.81c1.88,-1.19 654.8,-406.45 773.98,-1208.23l0.98 -6.61 6.05 2.81c781.79,362.97 1184.7,184.14 1585.82,6.09 230.28,-102.22 459.98,-204.18 760.11,-204.18 300.19,0 529.92,101.93 760.23,204.12 401.2,178.01 804.19,356.82 1585.72,-6.04l6.05 -2.81 0.98 6.61c119.18,801.78 772.11,1207.04 773.98,1208.23l6.01 3.81 -5.6 4.36c-702.79,546.99 -494.42,1307.93 -276.83,2102.56 135.03,493.12 273.61,999.19 201.18,1476.1 -31.57,207.93 -91.38,389.56 -175.08,549.39 -4.95,1.85 -9.73,3.74 -14.3,5.69 86.05,-161.35 147.42,-345.29 179.5,-556.57 72.13,-474.92 -66.16,-979.93 -200.9,-1472 -217.92,-795.81 -426.52,-1557.94 274.81,-2108.68 -64.92,-42.31 -655.76,-446.1 -771.61,-1204.89 -781.67,361.05 -1185.72,181.84 -1587.94,3.38 -229.34,-101.76 -458.11,-203.26 -756.2,-203.26 -298.13,0 -526.83,101.51 -756.09,203.28 -402.15,178.51 -806.15,357.75 -1588.04,-3.39 -115.85,758.79 -706.69,1162.59 -771.61,1204.89 701.34,550.74 492.74,1312.87 274.81,2108.68 -134.74,492.07 -273.03,997.08 -200.9,1472 32.08,211.28 93.45,395.22 179.5,556.57 -4.57,-1.95 -9.35,-3.85 -14.3,-5.69zm5681.68 122.7c-91.36,141.28 -203.28,263.9 -332.04,371.71 -58.39,48.89 -120.48,94.96 -185.53,138.67l-14.45 -2.33c68.01,-45.28 132.8,-93.11 193.57,-143.99 129.39,-108.33 241.65,-231.69 332.98,-374.02 0.85,1.74 1.6,3.44 2.59,5.21 0.91,1.63 1.9,3.18 2.87,4.75zm-3754.15 1054.8c150.13,59.65 299.67,121.25 445.5,189.84 174.2,81.94 352.2,177.97 503.6,299.52 151.41,-121.56 329.4,-217.58 503.6,-299.52 135.94,-63.94 275.11,-121.81 414.96,-177.68 -629.47,-77.55 -1249.44,-72.96 -1867.67,-12.17zm-476.97 -4560.86c-41.5,0 -71.86,-10.43 -91.09,-31.28 -19.22,-20.85 -28.83,-48.78 -28.83,-83.8 0,-28.34 5.35,-51.32 16.04,-68.94 10.69,-17.63 24.89,-30.3 42.59,-38.02 17.7,-7.72 37.62,-11.57 59.77,-11.57 15.53,0 29.79,1.67 42.78,5.01 12.98,3.34 25.97,8.47 38.95,15.38l-20.37 36.29c-18.14,-10.6 -37.87,-15.9 -59.13,-15.9 -43.22,0 -64.86,25 -64.86,74.99 0,24.88 6.05,43.77 18.08,56.67 12.03,12.9 29.02,19.35 51.05,19.35 11.26,0 21.07,-1.33 29.54,-3.98 8.47,-2.65 17.31,-6.39 26.48,-11.23l21.13 34.56c-13.75,7.37 -27.18,12.96 -40.3,16.76 -13.11,3.8 -27.05,5.7 -41.82,5.7zm218.46 0c-26.48,0 -48.95,-4.95 -67.41,-14.86 -18.46,-9.91 -32.4,-23.67 -41.82,-41.3 -9.42,-17.63 -14.13,-38.07 -14.13,-61.34 0,-25.8 5.73,-47.4 17.19,-64.8 11.46,-17.4 26.67,-30.3 45.64,-38.71 18.97,-8.41 40.04,-12.61 63.2,-12.61 26.48,0 48.95,4.95 67.41,14.86 18.46,9.91 32.34,23.67 41.63,41.3 9.3,17.63 13.94,38.07 13.94,61.34 0,25.8 -5.67,47.4 -17,64.8 -11.33,17.39 -26.48,30.3 -45.44,38.7 -18.97,8.41 -40.04,12.61 -63.2,12.61zm0 -40.09c15.02,0 27.81,-3.06 38.38,-9.16 10.57,-6.11 18.46,-14.86 23.68,-26.26 5.22,-11.41 7.83,-24.83 7.83,-40.26 0,-24.42 -5.73,-43.49 -17.19,-57.2 -11.46,-13.7 -28.13,-20.56 -50.03,-20.56 -22.91,0 -40.35,6.74 -52.32,20.22 -11.97,13.48 -17.95,31.96 -17.95,55.46 0,24.42 5.73,43.48 17.19,57.19 11.46,13.71 28.26,20.56 50.42,20.56zm219.6 -6.91l113.81 0 0 42.16 -166.52 0 0 -223.93 52.7 0 0 181.77zm198.98 0l113.81 0 0 42.16 -166.52 0 0 -223.93 52.7 0 0 181.77zm198.98 2.07l114.57 0 0 40.09 -167.28 0 0 -223.93 165.37 0 0 39.74 -112.67 0 0 50.45 97.39 0 -6.18 39.4 -91.21 0 0 54.26zm359 -88.81l0 111.97c-17.06,7.83 -33.04,13.42 -47.93,16.76 -14.89,3.34 -30.11,5.01 -45.64,5.01 -41.5,0 -71.93,-10.43 -91.28,-31.28 -19.35,-20.85 -29.03,-49.02 -29.03,-84.49 0,-27.19 5.47,-49.59 16.42,-67.22 10.94,-17.63 25.71,-30.47 44.3,-38.53 18.59,-8.06 39.72,-12.09 63.4,-12.09 15.53,0 30.43,1.78 44.69,5.35 14.26,3.57 27.37,8.81 39.33,15.72l-22.21 34.91c-19.41,-10.37 -39.15,-15.55 -59.32,-15.55 -23.74,0 -41.5,6.51 -53.21,19.52 -11.78,13.02 -17.63,31.62 -17.63,55.81 0,25.57 5.54,44.64 16.55,57.19 11.01,12.56 28.45,18.83 52.32,18.83 13.43,0 25.65,-1.84 36.54,-5.53l0 -46.65 -52.71 0 6.05 -39.74 99.37 0zm99.29 88.81l114.57 0 0 40.09 -167.28 0 0 -223.93 165.37 0 0 39.74 -112.67 0 0 50.45 97.39 0 -6.18 39.4 -91.22 0 0 54.26zm354.42 44.93c-26.48,0 -48.94,-4.95 -67.41,-14.86 -18.46,-9.91 -32.4,-23.67 -41.82,-41.3 -9.42,-17.63 -14.13,-38.07 -14.13,-61.34 0,-25.8 5.73,-47.4 17.19,-64.8 11.45,-17.4 26.67,-30.3 45.63,-38.71 18.97,-8.41 40.04,-12.61 63.21,-12.61 26.48,0 48.95,4.95 67.41,14.86 18.46,9.91 32.34,23.67 41.63,41.3 9.3,17.63 13.94,38.07 13.94,61.34 0,25.8 -5.67,47.4 -17,64.8 -11.33,17.39 -26.48,30.3 -45.44,38.7 -18.97,8.41 -40.04,12.61 -63.21,12.61zm0 -40.09c15.02,0 27.82,-3.06 38.38,-9.16 10.57,-6.11 18.46,-14.86 23.68,-26.26 5.22,-11.41 7.83,-24.83 7.83,-40.26 0,-24.42 -5.73,-43.49 -17.19,-57.2 -11.46,-13.7 -28.13,-20.56 -50.03,-20.56 -22.91,0 -40.35,6.74 -52.32,20.22 -11.97,13.48 -17.95,31.96 -17.95,55.46 0,24.42 5.73,43.48 17.19,57.19 11.46,13.71 28.26,20.56 50.41,20.56zm332.27 -148.94l-112.67 0 0 55.98 97.39 0 -6.18 39.39 -91.22 0 0 88.81 -52.7 0 0 -223.93 165.37 0 0 39.74zm191.34 91.23l62.64 0 -31.7 -85.36 -30.94 85.36zm239.46 -25.57l23.81 0c15.59,0 27.63,-2.65 36.09,-7.94 8.46,-5.3 12.67,-14.06 12.67,-26.26 0,-10.6 -3.76,-18.55 -11.33,-23.85 -7.51,-5.3 -18.08,-7.95 -31.57,-7.95l-29.67 0 0 66zm355.57 -105.4l0 41.81 -78.67 0 0 182.12 -52.7 0 0 -182.12 -79.06 0 0 -41.81 210.44 0zm105.79 228.77c-38.19,0 -70.65,-8.98 -97.39,-26.96l24.44 -34.21c23.68,13.59 46.85,20.39 69.51,20.39 14.51,0 25.91,-2.07 34.18,-6.22 8.28,-4.15 12.41,-10.37 12.41,-18.66 0,-5.07 -1.34,-9.27 -4.01,-12.61 -2.67,-3.34 -7.39,-6.56 -14.13,-9.67 -6.74,-3.11 -16.87,-7.09 -30.36,-11.93l-8.78 -3.11c-16.3,-5.76 -29.41,-11.29 -39.34,-16.59 -9.93,-5.3 -17.82,-12.09 -23.68,-20.39 -5.85,-8.29 -8.78,-18.78 -8.78,-31.45 0,-14.05 4.45,-25.74 13.37,-35.07 8.91,-9.33 20.37,-16.19 34.37,-20.56 14,-4.37 28.9,-6.56 44.68,-6.56 14.26,0 28.96,2.13 44.11,6.39 15.15,4.26 29.6,10.54 43.35,18.83l-24.7 33.87c-12.09,-6.68 -22.85,-11.52 -32.27,-14.51 -9.36,-3 -19.48,-4.49 -30.37,-4.49 -12.09,0 -21.26,1.84 -27.5,5.53 -6.17,3.69 -9.29,8.64 -9.29,14.86 0,3.91 1.27,7.43 3.82,10.54 2.48,3.11 7.06,6.22 13.62,9.33 6.62,3.11 16.1,6.74 28.52,10.89l8.33 2.76c16.17,5.53 29.28,10.71 39.28,15.55 9.99,4.84 18.46,11.75 25.27,20.74 6.81,8.98 10.25,20.62 10.25,34.9 0,14.98 -4.33,27.59 -12.98,37.84 -8.66,10.25 -20.43,17.91 -35.33,22.98 -14.89,5.07 -31.76,7.6 -50.6,7.6zm-2294.73 48.31l0 41.81 -78.68 0 0 182.12 -52.7 0 0 -182.12 -79.06 0 0 -41.81 210.44 0zm84.78 183.85l114.57 0 0 40.09 -167.28 0 0 -223.93 165.37 0 0 39.74 -112.67 0 0 50.45 97.39 0 -6.18 39.4 -91.21 0 0 54.26zm265.05 44.93c-41.5,0 -71.87,-10.43 -91.09,-31.28 -19.22,-20.85 -28.83,-48.78 -28.83,-83.8 0,-28.34 5.35,-51.32 16.04,-68.94 10.7,-17.63 24.89,-30.3 42.59,-38.02 17.69,-7.72 37.62,-11.57 59.77,-11.57 15.53,0 29.79,1.67 42.78,5.01 12.98,3.34 25.96,8.47 38.95,15.38l-20.37 36.29c-18.14,-10.6 -37.87,-15.9 -59.13,-15.9 -43.22,0 -64.87,25 -64.87,74.99 0,24.88 6.05,43.77 18.08,56.67 12.03,12.9 29.03,19.35 51.05,19.35 11.26,0 21.07,-1.33 29.54,-3.98 8.46,-2.65 17.31,-6.39 26.48,-11.23l21.13 34.56c-13.75,7.37 -27.18,12.96 -40.29,16.76 -13.11,3.8 -27.05,5.7 -41.82,5.7zm281.47 -228.77l52.7 0 0 223.93 -52.7 0 0 -92.96 -114.96 0 0 92.96 -52.7 0 0 -223.93 52.7 0 0 89.5 114.96 0 0 -89.5zm326.92 0l0 223.93 -58.82 0 -77.78 -104.37c-6.68,-9.21 -12.28,-17.22 -16.87,-24.02 -4.58,-6.8 -9.1,-14.46 -13.43,-22.98l0 151.36 -52.7 0 0 -223.93 58.05 0 84.72 114.73c1.02,1.39 3.31,4.55 6.87,9.5 3.56,4.95 6.81,9.62 9.8,14 2.93,4.38 5.41,8.64 7.45,12.79l0 -151.02 52.7 0zm164.61 228.77c-26.48,0 -48.95,-4.95 -67.41,-14.86 -18.46,-9.91 -32.4,-23.67 -41.82,-41.3 -9.42,-17.63 -14.13,-38.07 -14.13,-61.34 0,-25.8 5.73,-47.4 17.19,-64.8 11.46,-17.4 26.67,-30.3 45.64,-38.71 18.97,-8.41 40.04,-12.61 63.2,-12.61 26.48,0 48.95,4.95 67.41,14.86 18.46,9.91 32.34,23.67 41.63,41.3 9.3,17.63 13.94,38.07 13.94,61.34 0,25.8 -5.67,47.4 -17,64.8 -11.33,17.39 -26.48,30.3 -45.44,38.7 -18.97,8.41 -40.04,12.61 -63.2,12.61zm0 -40.09c15.02,0 27.81,-3.06 38.38,-9.16 10.57,-6.11 18.46,-14.86 23.68,-26.26 5.22,-11.41 7.83,-24.83 7.83,-40.26 0,-24.42 -5.73,-43.49 -17.19,-57.2 -11.46,-13.7 -28.13,-20.56 -50.03,-20.56 -22.91,0 -40.35,6.74 -52.32,20.22 -11.97,13.48 -17.95,31.96 -17.95,55.46 0,24.42 5.73,43.48 17.19,57.19 11.46,13.71 28.26,20.56 50.42,20.56zm219.59 -6.91l113.81 0 0 42.16 -166.52 0 0 -223.93 52.7 0 0 181.77zm246.34 47c-26.48,0 -48.95,-4.95 -67.41,-14.86 -18.46,-9.91 -32.4,-23.67 -41.82,-41.3 -9.42,-17.63 -14.13,-38.07 -14.13,-61.34 0,-25.8 5.72,-47.4 17.19,-64.8 11.46,-17.4 26.67,-30.3 45.64,-38.71 18.97,-8.41 40.04,-12.61 63.2,-12.61 26.48,0 48.95,4.95 67.41,14.86 18.46,9.91 32.34,23.67 41.63,41.3 9.3,17.63 13.94,38.07 13.94,61.34 0,25.8 -5.67,47.4 -17,64.8 -11.33,17.39 -26.48,30.3 -45.44,38.7 -18.97,8.41 -40.04,12.61 -63.2,12.61zm0 -40.09c15.02,0 27.81,-3.06 38.38,-9.16 10.57,-6.11 18.46,-14.86 23.68,-26.26 5.22,-11.41 7.83,-24.83 7.83,-40.26 0,-24.42 -5.73,-43.49 -17.19,-57.2 -11.46,-13.7 -28.13,-20.56 -50.03,-20.56 -22.91,0 -40.35,6.74 -52.32,20.22 -11.97,13.48 -17.95,31.96 -17.95,55.46 0,24.42 5.73,43.48 17.19,57.19 11.46,13.71 28.26,20.56 50.42,20.56zm367.78 -93.65l0 111.97c-17.06,7.83 -33.04,13.42 -47.93,16.76 -14.89,3.34 -30.11,5.01 -45.63,5.01 -41.5,0 -71.93,-10.43 -91.28,-31.28 -19.35,-20.85 -29.03,-49.02 -29.03,-84.49 0,-27.19 5.47,-49.59 16.42,-67.22 10.95,-17.63 25.71,-30.47 44.3,-38.53 18.59,-8.06 39.72,-12.09 63.4,-12.09 15.53,0 30.43,1.78 44.69,5.35 14.26,3.57 27.37,8.81 39.33,15.72l-22.21 34.91c-19.41,-10.37 -39.15,-15.55 -59.32,-15.55 -23.74,0 -41.5,6.51 -53.21,19.52 -11.78,13.02 -17.63,31.62 -17.63,55.81 0,25.57 5.54,44.64 16.55,57.19 11.01,12.56 28.45,18.83 52.32,18.83 13.43,0 25.65,-1.84 36.54,-5.53l0 -46.65 -52.71 0 6.05 -39.74 99.37 0zm251.68 -95.03l0 2.76 -91.66 127.86 0 93.31 -52.7 0 0 -91.93 -89.37 -129.24 0 -2.76 61.11 0 55.76 86.39 58.05 -86.39 58.81 0zm-26.74 270.24c13.62,-15.9 20.5,-28.22 20.5,-36.98 0,-3 -0.64,-5.36 -1.97,-7.08 -1.27,-1.73 -3.31,-3.74 -6.18,-6.05 -1.78,-1.38 -3.56,-2.94 -5.22,-4.67 -1.65,-1.72 -3.06,-3.8 -4.07,-6.22 -1.02,-2.42 -1.53,-5.35 -1.53,-8.81 0,-4.38 1.21,-8.64 3.69,-12.79 2.42,-4.15 5.98,-7.54 10.63,-10.19 4.65,-2.65 10.06,-3.97 16.23,-3.97 9.8,0 17.44,2.99 22.98,8.98 5.53,5.99 8.33,14.17 8.33,24.54 0,11.98 -3.44,24.13 -10.25,36.46 -6.81,12.33 -16.43,25.4 -28.77,39.22l-24.38 -12.44zm-2181.5 6.84l88.98 221.17 0 2.76 -57.67 0 -19.86 -53.56 -91.66 0 -19.48 53.56 -56.91 0 0 -2.76 88.99 -221.17 67.6 0zm-65.69 130.97l62.64 0 -31.7 -85.36 -30.94 85.36zm329.98 -24.88c10.69,2.54 19.67,6.51 26.92,11.92 7.26,5.42 12.6,11.58 16.04,18.49 3.44,6.91 5.15,14.17 5.15,21.77 0,20.97 -8.14,37.15 -24.44,48.56 -16.3,11.41 -39.59,17.11 -69.89,17.11l-97.01 0 0 -223.93 90.52 0c19.61,0 36.22,2.48 49.84,7.43 13.62,4.95 23.87,11.86 30.74,20.73 6.87,8.87 10.31,19.3 10.31,31.28 0,9.91 -3.18,19.07 -9.54,27.47 -6.37,8.41 -15.92,14.8 -28.64,19.18zm-90.52 -67.39l0 52.18 30.49 0c28.32,0 42.46,-9.1 42.46,-27.3 0,-8.06 -3.19,-14.22 -9.48,-18.49 -6.3,-4.26 -15.47,-6.39 -27.56,-6.39l-35.9 0zm38.89 145.83c15.85,0 27.11,-2.59 33.86,-7.78 6.75,-5.18 10.12,-12.15 10.12,-20.91 0,-8.52 -3.5,-15.32 -10.5,-20.39 -7,-5.07 -17.63,-7.6 -31.89,-7.6l-40.48 0 0 56.67 38.89 0zm194.07 -0.69l114.57 0 0 40.09 -167.28 0 0 -223.93 165.37 0 0 39.74 -112.67 0 0 50.45 97.39 0 -6.18 39.4 -91.21 0 0 54.26zm268.49 44.93c-26.48,0 -48.95,-4.95 -67.41,-14.86 -18.46,-9.91 -32.39,-23.67 -41.82,-41.3 -9.42,-17.63 -14.13,-38.07 -14.13,-61.34 0,-25.8 5.73,-47.4 17.19,-64.8 11.46,-17.4 26.67,-30.3 45.64,-38.71 18.97,-8.41 40.04,-12.61 63.2,-12.61 26.48,0 48.95,4.95 67.41,14.86 18.46,9.91 32.34,23.67 41.63,41.3 9.3,17.63 13.94,38.07 13.94,61.34 0,25.8 -5.67,47.4 -17,64.8 -11.33,17.39 -26.48,30.3 -45.44,38.7 -18.97,8.41 -40.04,12.61 -63.2,12.61zm0 -40.09c15.02,0 27.81,-3.06 38.38,-9.16 10.57,-6.11 18.46,-14.86 23.68,-26.26 5.22,-11.41 7.83,-24.83 7.83,-40.26 0,-24.42 -5.73,-43.49 -17.19,-57.2 -11.46,-13.7 -28.13,-20.56 -50.03,-20.56 -22.91,0 -40.35,6.74 -52.32,20.22 -11.97,13.48 -17.95,31.96 -17.95,55.46 0,24.42 5.73,43.48 17.19,57.19 11.46,13.71 28.26,20.56 50.42,20.56zm279.56 -82.94l103.12 115.43 0 2.76 -66.71 0 -96.37 -110.93 0 110.93 -52.7 0 0 -223.93 52.7 0 0 103.67 96.06 -103.67 61.68 0 0 2.76 -97.77 102.98zm235.64 123.03c-24.95,0 -45.45,-4.2 -61.49,-12.61 -16.04,-8.41 -27.69,-19.81 -34.94,-34.21 -7.26,-14.4 -10.89,-30.81 -10.89,-49.24l0 -132.7 52.7 0 0 126.83c0,19.35 4.33,34.38 12.92,45.1 8.66,10.71 23.68,16.07 45.13,16.07 20.43,0 34.82,-5.35 43.22,-16.07 8.34,-10.72 12.54,-24.59 12.54,-41.65l0 -130.28 52.7 0 0 131.67c0,22.81 -4.83,41.41 -14.51,55.81 -9.68,14.4 -22.85,24.88 -39.53,31.44 -16.68,6.57 -35.97,9.85 -57.86,9.85zm349.07 -228.77l0 41.81 -78.67 0 0 182.12 -52.7 0 0 -182.12 -79.06 0 0 -41.81 210.43 0zm131.38 0l88.99 221.17 0 2.76 -57.67 0 -19.86 -53.56 -91.66 0 -19.48 53.56 -56.91 0 0 -2.76 88.98 -221.17 67.6 0zm-65.69 130.97l62.63 0 -31.7 -85.36 -30.93 85.36zm210.43 97.45c-5.6,0 -10.76,-1.27 -15.47,-3.8 -4.71,-2.54 -8.46,-5.88 -11.26,-10.02 -2.8,-4.15 -4.2,-8.76 -4.2,-13.82 0,-4.84 1.4,-9.33 4.2,-13.48 2.8,-4.15 6.55,-7.49 11.26,-10.02 4.71,-2.54 9.87,-3.8 15.47,-3.8 5.35,0 10.38,1.26 15.09,3.8 4.71,2.54 8.53,5.87 11.46,10.02 2.92,4.15 4.39,8.64 4.39,13.48 0,5.07 -1.4,9.68 -4.2,13.82 -2.8,4.15 -6.62,7.49 -11.46,10.02 -4.84,2.53 -9.93,3.8 -15.28,3.8zm-2237.36 -509.49l10.39 27.54 -3.36 0c-8.93,-10.95 -19.31,-19.71 -31.14,-26.46 -11.84,-6.7 -23.35,-10.06 -34.57,-10.06 -10.27,0 -17.97,2.91 -23.06,8.77 -5.14,5.81 -7.7,12.28 -7.7,19.37 0,13.23 10.72,30.38 32.21,51.59l106.8 106.02c8.1,-10.83 13.68,-24.69 16.81,-41.55 3.07,-16.8 4.63,-29.86 4.63,-39.02 0,-6.81 -1.57,-11.06 -4.63,-12.9 -3.13,-1.78 -8.15,-2.85 -15.13,-3.18l-2.28 -0.34 -5.41 0.34 0 -3.02 50.91 0 0 3.02c-5.46,-0.67 -9.15,0.83 -11.1,4.4 -1.91,3.64 -3.8,11.67 -5.64,24.13 -4.58,32.82 -12.39,57.06 -23.4,72.79l24.62 24.46c11.95,11.9 24.02,17.87 36.24,17.92 8.87,0 18.03,-2.79 27.57,-8.37l1.62 2.35c-14.63,10.28 -30.43,15.41 -47.45,15.41 -17.87,-0.06 -34.22,-7.48 -49.13,-22.39 0,-0.45 -0.62,-1.24 -1.79,-2.35l-7.98 -7.71c-22.84,21.61 -52.21,32.44 -88.1,32.44 -34.61,0 -60.36,-8.88 -77.27,-26.57 -16.92,-17.76 -25.4,-37.3 -25.4,-58.62 0,-18.49 5.69,-34.57 17.09,-48.18 11.38,-13.63 27.02,-22.29 46.83,-26.02 -5.69,-8.04 -9.99,-15.41 -12.94,-22 -2.97,-6.59 -4.42,-13.68 -4.42,-21.21 0,-11.89 4.25,-22.55 12.8,-32.06 8.48,-9.49 21.93,-14.24 40.41,-14.24 10.66,0 20.05,1.4 28.14,4.26 8.04,2.84 16.35,6.64 24.85,11.43zm33.56 196.19l-92.17 -89.09c-0.62,-0.57 -4.47,-4.58 -11.56,-12.07 -7.04,-7.48 -11.67,-12.78 -13.84,-15.8 -32.89,7.65 -49.31,24.07 -49.31,49.31 0,22.6 10.61,43.6 31.83,62.91 21.21,19.39 45.33,29.04 72.41,29.04 14.28,0 25.4,-1.73 33.28,-5.2 7.93,-3.39 16.91,-9.21 26.91,-17.25 0.44,-0.44 0.95,-0.83 1.45,-1.16 0.56,-0.34 0.89,-0.57 1.01,-0.68zm2320.52 -1106.82c23.1,-4.16 41.7,-2.09 47.12,12.3 4.23,11.23 -1.98,58.93 -6.11,113.11 -2.86,37.57 -22.82,174.37 -39.28,217.1 -5.91,15.34 -43.85,105.09 -31.3,115.48 30.15,24.95 61.84,-77.81 67.72,-89.09 61.46,-118.01 215.41,-311.15 307.96,-360.83 31.16,-16.73 61.04,-23.22 67.49,14.81 35.43,208.69 -177.78,407.36 -329.19,454.36 -46.79,14.51 -110.67,8.49 -158.43,14.93 -89.52,12.06 -181.45,96.78 -182.69,185.17l-16.01 -39.8 -67.6 0 -88.98 221.17 0 2.76 56.91 0 19.48 -53.56 91.66 0 19.86 53.56 57.67 0 0 -2.76 -35.78 -88.92c17.6,18.89 41.48,31.06 67.85,36.52l0 55.17 52.7 0 0 -52.91c12.29,-1.37 24.59,-4.03 36.58,-7.96l46.42 60.88 60.6 0 0 -2.76 -62.34 -80.07c9.3,-6.35 18.05,-13.69 26.04,-21.99 2.98,-2.68 5.66,-5.58 8.03,-8.7 0.6,-0.79 1.18,-1.59 1.74,-2.4 4.02,-5.02 7.79,-10.33 11.27,-15.93 -1.32,0.54 -2.6,1.01 -3.91,1.54 2.59,-7.3 3.89,-15.23 3.89,-23.81 0,-13.36 -3.56,-25.28 -10.69,-35.76 -7.13,-10.48 -18.01,-18.78 -32.65,-24.88 -14.64,-6.11 -32.91,-9.16 -54.81,-9.16l-82.88 0 0 123.19c-137.66,-24.12 -107.47,-196.58 64.94,-207.59 51.75,-3.31 119.13,-4.58 160.21,-25.01 152.19,-75.67 501.14,-380.51 424.24,-588.84 -7.77,-21.07 -25.02,-35.04 -59.31,-25.82 -26.15,7.03 -50.03,28.43 -72.24,45 -86.11,64.23 -170.72,159.43 -246.94,235.7 0,-89.51 14.22,-187.71 14.24,-276.14 -31.65,-9.92 -110.36,54.51 -133.46,82zm-623.37 93.8c-25.25,89.27 47.53,123.86 46.73,202.6 -1.48,146.39 -146.25,141.57 -220.65,78.96 -21.24,53.53 1.8,73.44 31.67,82.82 91.9,28.89 215.5,-40.69 248.13,-142.56 14.7,-45.88 14.52,-98.8 -11.3,-143.82 -69.11,-120.5 -18.66,-238.5 95.64,-193 22.43,8.93 10.87,32.61 1.54,45.32 -11.09,15.13 10.29,61.23 14.18,33.56 3.47,-24.65 77.23,-127.08 66.31,-129.63 -136.74,-31.85 -239.99,51.73 -272.24,165.76zm-497.32 371.41c116.38,25.83 370.09,-208.55 308.14,-272.44 6.51,29.35 -136.89,207.96 -224.62,215.32 -48.32,4.05 -84.98,-51.53 -22.97,-196.67 24.9,-58.3 109.18,-237.31 220.68,-230.65 39.42,2.35 55.79,14.96 44.35,51.49 -15.43,49.3 -113.83,74.43 -195.78,86.28 83.55,63.15 267.32,-61.28 292.81,-143.43 15.4,-49.63 -50.38,-52.34 -96.75,-46.56 -280.72,35.06 -492.63,499.65 -325.86,536.65zm988.53 -404.72c0,-24.99 32.55,-113.08 -36.41,-95.39 -25.17,6.46 -49.66,15.13 -68.89,41.26 -51.08,69.35 31.44,175.97 26.27,257.86 -5.43,86.15 -64.6,157.35 -127.43,191.67 -79.92,43.63 -206.07,-2 -154.87,-93.11 69.46,119.77 230.56,50.32 225.84,-68.07 -1.67,-41.88 -39.83,-121.46 -44.52,-169.59 -9.82,-100.78 85.06,-171.65 168.35,-200.09 60.13,-20.53 113.48,-8.69 87.78,27.7l-76.11 107.76zm-2243.52 -22.66c33.18,-2.01 37.23,-13.41 56.05,-9.72 13.31,2.61 7.99,2.72 13.62,13.35 62.3,0 15.82,22.41 29.76,49.94 11.4,22.54 15.05,-1.85 32.17,61.78 6.49,24.12 3.53,11.24 -6.93,29.87 -4.8,8.56 -9.4,26.05 -6.28,36.01 4.57,14.57 23.52,29.24 24.59,67.24 10.93,-19.54 -3.24,-164.28 5.9,-198.77l-0.49 -275.98c-6.24,-7.46 -9.13,-7.65 -19.1,-9.59 -15.66,-3.06 -10.45,-0.45 -22.96,-7.07 4.52,-12.48 7.94,-6.15 8.12,-16.29 0.19,-10.64 -8.84,-17.36 -14.81,-17.58 -51.07,-1.93 -71.11,13.47 -99.55,16.65 2.33,11.76 2.03,34.65 2.28,45.79 0.61,28.26 0.76,56.56 0.73,84.83 -0.03,28.25 -0.23,56.54 -0.9,84.78 -0.26,10.73 -0.03,32.86 -2.19,44.77zm459.53 343.5l1 -0.99c-0.07,0.06 -1.32,0.66 -1,0.99zm-137.14 -158.98l24.94 -16.53c9.7,-10.63 6.69,-48.01 6.43,-48.94 -9.62,-34.93 -23.89,-33.79 19.94,-77.96 41.02,-41.34 15.59,-0.98 55.23,-64.73 4.31,-6.94 23.77,-38.3 0.01,-33.98 -7.05,1.28 -3.04,1.52 -10.21,3.41 -50.8,13.33 -37.3,-0.56 -47.43,-13.86 -19.96,-24.12 -20.94,-12.44 -27.6,-25.72 -2.69,-5.38 -0.61,-5.56 -5.7,-14.29 -6.2,-10.65 -4.75,-0.82 -7.85,-15.48 -2.49,-11.8 -1.77,-19.28 -7.26,-22.41l-2.68 195.34c0.44,26.6 -4.47,112.36 2.17,135.17zm-332.67 -184.23c4.35,-16.81 4.58,-242.85 0.26,-259.91 -5.68,-2.68 -5.07,-2.6 -13.61,-3.33 -6.14,26.35 -17.88,14.66 -26.3,33.69 -10.79,24.38 6.86,20.08 -22.5,37.47l-36.37 53.56c-1.83,10.43 2.07,9.94 3.9,19.54 3.3,17.3 -7.13,32.89 -6.74,44.48 0.79,23.88 0.67,4.01 24.02,35.22 15.82,23.5 6.14,13.62 29.22,30.76 27.85,20.68 15.03,8.53 48.13,8.53zm158.07 260.05c10.62,23.41 11.37,3.9 25.19,63.17 30.35,7.07 16.02,-1.09 40.13,-3.18 33.24,-2.88 31.79,0.77 62.76,-37.2 11.41,-14 13.73,-11 13.73,-36.25 28.81,-15.24 24.28,-13.93 16.66,-46.65l7.53 -10c-7.09,-17.83 -3.81,-94.06 -3.54,-130.87l-153.13 0.32c-1.46,10.57 -1.42,23.82 -1.48,32.95 -0.14,20.59 0.46,41.24 0.96,61.82 0.45,18.75 3.56,83.79 -4.89,98.9l-3.92 7zm11.09 -210.67l151.34 -0.31 2.7 -197.03c-0.75,-28.41 -27.2,-41.78 -29.99,-75.28 -29.94,0 -17.56,7.31 -47.49,-2.47 -18.42,-6.02 -25.62,-10.86 -49.14,-10.86 -3.76,7.84 -2.91,12.16 -6.67,19.99 -6.46,-0.54 -14.24,-3.23 -21.24,-5.98l0.49 271.94zm-243.6 348.25c164.26,72.98 374.46,56.12 524.26,-44.42l6.67 -3.33 6.67 -3.33 -6.67 3.33 -6.67 3.33c12.33,-7.79 -4.48,-10.99 0,-26.66 -73.49,38.3 -175.07,61.41 -247.63,71.03 -160.06,-1.82 -317.21,-63.24 -403.59,-206.19 -22.07,-36.54 -44.53,-98.94 -48.33,-151.59 -19.85,-274.44 185.21,-425.11 397.93,-420.15 385.29,64.81 489.33,459.92 381.6,806.87 13.09,-7.82 21.61,9.74 39.99,0l257.88 -366.7c-0.57,1.3 -1.03,2.48 -1.33,3.5 12.81,26.51 24.09,339.5 26.68,386.53 13.33,0 33.04,11.37 39.98,0 381.02,-401.5 465.87,-417.77 463.24,-656.49 -0.51,-46.13 8.24,-33.26 -127.05,-33.26 -34.28,0 -42.95,-7.76 -42.95,26.66 33.98,0 57.89,-3.08 60.16,43.29 5.73,116.72 -217.96,412.9 -277.12,449.87l0.9 43.3c-2.87,-138.01 -30.45,-616.6 -126.08,-710.91 -13.36,-13.18 -23.54,-6.82 -34.87,3.06 0.35,-0.57 0.71,-1.2 1.08,-1.87 -28.83,-6.18 -13.81,-17.17 -43.96,3.28 -52.94,35.9 -38.48,20.89 -17.33,97.39 20.22,73.14 40.69,136.31 52.61,213.96 6.16,40.14 10.61,39.19 -9.99,67.17l-99.65 146.94c-6.37,7.6 -3.92,6.77 -15.58,7.74l-0.02 43.31 0.01 27.83c-1.83,-179.05 -5.25,-324.66 -120.89,-480.06 -94.48,-126.96 -263.51,-176.61 -428.23,-161.16 -131.87,-4.37 -258.32,29.08 -354.73,126.05 -236.6,237.98 -143.39,615.3 178.06,703.93 -8.5,-3.82 -16.84,-7.91 -25.04,-12.22zm653.91 -9.85c-3.01,13.02 -6.25,25.94 -9.69,38.74l9.69 -38.74zm283.26 -377.84c18.02,92.26 25.39,179.57 28.35,268.21 -4.86,-97.13 -15.11,-200.43 -28.35,-268.21zm-90.54 -367.07c5.6,19.24 21.94,72.65 38.28,131.5l-38.28 -131.5zm62.26 223.87c12.73,53.93 20.39,99.3 13.74,111.44 6.37,-14.98 -3.54,-66.97 -13.74,-111.44zm-876.91 -246.55c-109.78,43.39 -202.73,118.57 -249.02,220.97 45.03,-99.81 135.3,-177.15 249.02,-220.97zm-249.57 222.2c-1.97,4.41 -3.85,8.87 -5.65,13.38 1.8,-4.5 3.68,-8.96 5.65,-13.38zm-6.48 15.48c-1.71,4.37 -3.35,8.79 -4.89,13.26 1.54,-4.46 3.18,-8.88 4.89,-13.26zm-5.66 15.56c-1.54,4.56 -3.01,9.15 -4.37,13.8 1.36,-4.65 2.82,-9.24 4.37,-13.8zm-4.76 15.22c-1.43,4.96 -2.77,9.97 -3.99,15.04 1.22,-5.06 2.56,-10.07 3.99,-15.04z"/>
     <path class="fil1" d="M3622.56 5022.65c-5.85,30.06 -11.99,60.06 -18.4,89.98 -6.73,31.37 -13.74,62.59 -21,93.67 -35.67,152.56 -77.26,304.17 -118.84,455.76 -45.81,167.02 -91.64,334.03 -129.69,503.13 -24.82,110.31 -48.24,229 -61.17,348.27 -12.91,119.07 -15.35,238.72 1.72,351.16 19.1,125.78 53.26,236.31 107.13,335.86 53.84,99.51 127.45,188.16 225.45,270.21 75.3,63.05 159.09,119.38 246.25,170.3 87.33,51.02 177.93,96.57 266.73,138 119.22,55.63 240.81,105.93 363.11,154.66 -6.81,0.86 -13.7,1.71 -20.43,2.59 -116.68,-46.67 -232.73,-94.95 -346.89,-148.22 -89.22,-41.64 -180.14,-87.33 -267.55,-138.4 -87.58,-51.16 -171.83,-107.8 -247.62,-171.27 -98.98,-82.87 -173.36,-172.48 -227.83,-273.14 -54.45,-100.62 -88.96,-212.21 -108.23,-339.09 -17.21,-113.33 -14.75,-233.84 -1.76,-353.7 12.97,-119.67 36.47,-238.75 61.37,-349.4 38.04,-169.07 83.93,-336.31 129.8,-503.56 41.46,-151.13 82.93,-302.28 118.72,-455.41 7.28,-31.17 14.28,-62.33 20.96,-93.47 6.69,-31.23 13.09,-62.52 19.15,-93.85l0.79 -4.06 4021.33 0 0.79 4.06c6.06,31.33 12.46,62.62 19.15,93.85 6.68,31.13 13.68,62.3 20.96,93.47 35.8,153.13 77.26,304.28 118.72,455.41 45.88,167.24 91.76,334.49 129.8,503.56 24.9,110.65 48.39,229.73 61.37,349.4 12.99,119.87 15.45,240.38 -1.76,353.7 -19.27,126.89 -53.78,238.48 -108.23,339.09 -54.46,100.66 -128.85,190.26 -227.83,273.14 -75.8,63.47 -160.04,120.11 -247.62,171.27 -87.41,51.07 -178.32,96.76 -267.55,138.4 -121.27,56.59 -244.67,107.55 -368.69,156.92 -6.78,-0.88 -13.58,-1.75 -20.44,-2.62 129.65,-51.44 258.6,-104.39 384.9,-163.32 88.8,-41.44 179.39,-86.98 266.73,-138 87.17,-50.92 170.96,-107.24 246.25,-170.3 98,-82.05 171.61,-170.7 225.45,-270.21 53.87,-99.55 88.04,-210.08 107.13,-335.86 17.07,-112.44 14.63,-232.09 1.72,-351.16 -12.93,-119.27 -36.35,-237.96 -61.17,-348.27 -38.05,-169.1 -83.87,-336.12 -129.69,-503.13 -41.58,-151.59 -83.17,-303.2 -118.84,-455.76 -7.26,-31.07 -14.27,-62.3 -21,-93.67 -6.41,-29.92 -12.56,-59.92 -18.4,-89.98l-4004.87 0z"/>
    </g>
    <path class="fil0" d="M5453.17 7652.57c-15.54,-5.18 -29.3,-11.95 -44.17,-18.55 -11.61,-5.16 -36.26,-12 -43.74,-19.22 0.35,-0.2 0.9,-0.83 1.09,-0.5l4.52 -1.6c22.13,-5.82 29.87,0.4 45.65,3.54 3.36,-25.62 17.97,-40.57 43.61,-26.79 -3.44,17.67 -30.12,8.11 -33.05,28.74 -2,14.08 19.95,26.59 26.1,34.38zm808.97 -2082.26c4.27,28.52 -7.65,37.27 -23.9,49.98 -14.63,11.44 -28.71,22.68 -43.39,33.82 -13.11,9.95 -33.79,21.22 -30.69,44.36 2.63,19.61 9.1,43.35 13.24,63.85 8.94,44.21 -2.75,40.04 108.68,28.26 23.42,-2.48 46.98,-3.93 70.04,-6.85 15.17,-1.92 16.94,-4.44 22.08,-16.71 3.67,-8.75 8.25,-18.15 11.36,-27.3l146.12 -0.17c20.86,0.44 5.13,14.06 36.74,14.11 18.29,0.02 119.33,2.37 128.43,-3.03l-1.87 -0.37c40.57,-207.03 -0.61,-328.27 -0.73,-328.63l1.81 -0.59c-1.7,-2.07 -6.2,-3.81 -26.94,-3.76l-99.03 -0c-15.26,-0.03 -17.43,0.85 -24.9,8.93 -2.87,3.09 -4.55,5.05 -6.09,6.27 2.36,40.92 -0.51,85.54 -0.51,85.54 0.95,-35.07 -0.6,-62.51 -3.3,-83.82 -2.6,0.44 -6.38,0.15 -13.81,0.08 -41.53,-0.37 -83.99,1.02 -125.46,0.08 7.84,51.87 -1.52,167.54 -1.52,167.54 3.63,-96.98 -0.19,-144.46 -4.94,-167.71l-0.45 -0.02c-2.55,-7.59 -6.58,-14.82 -10.05,-22.22l-0 0 0 0c-0.68,-1.44 -1.33,-2.89 -1.94,-4.34 -12.8,-30.22 -11.53,-21.41 -81.85,-28.91 -22.39,-2.39 -45.35,-5.06 -67.67,-7.65 -40.8,-4.75 -45.44,-10.04 -50.77,15.69 -4.47,21.56 -8.74,40.56 -13.64,61.85 -9.93,43.15 8.17,40.17 60.02,84.36 13.31,11.34 28.98,19.29 34.9,37.35zm829.13 352.38l-0.41 33.41 60.27 0.1 2.7 -36.2 41.58 -2.95c3.29,17.17 21.7,32.84 44.03,25.01 20.72,-7.26 25.64,-25.33 19.27,-50.14 24.35,-8.44 33.54,-23.65 29.57,-49.43 -1.2,-7.77 -5.92,-11 -14.59,-11.62 -32.43,-2.31 -75.39,-0.03 -108.95,0.02 -72.01,0.11 -145.47,1.64 -217.3,0.32 -2.84,11.85 -4.39,38.41 7.8,49.26 19.49,17.35 46.04,4.94 55.09,17 6.1,8.13 8.16,15.94 23.93,21.46 14.06,4.92 40.42,3.65 57,3.74zm-2.1 -203.02l133.93 -0.23 0.37 -241.59 -134.32 0.17 0.02 241.65zm160.11 8.35c-4.84,20.78 -22.05,17.17 -43.94,17.72l-119.46 0.67c-21.54,-1.48 -23.79,-15.09 -23.66,-36.85 0.19,-31.42 -1.93,-228.44 0.92,-240.93 4.15,-18.22 22.19,-17.41 42.87,-17.47 27.16,-0.08 98.81,-1.88 120.85,-0.09 20.06,1.62 23.15,15.94 23.07,37 -0.15,40.26 -0.03,80.56 0.04,120.82 0.04,22.43 2.94,103.53 -0.69,119.13zm-294.33 -149.33c-0.06,-10.7 -1.55,-20.8 28.3,-14.79 22.74,4.57 18.86,46.89 7.81,57.54 -6.64,6.39 -24.89,7.96 -34.62,4.39 -3.07,-7.01 -1.44,-35.06 -1.49,-47.15zm201.18 -173.37c7.84,-2.83 38.24,-1.57 49.01,-1.25 21.06,0.62 19.24,23.41 6.15,26.45 -6.11,1.42 -41.7,0.9 -50.04,0.61 -17.99,-0.62 -19.88,-20.5 -5.13,-25.81zm-225.12 128.22c8.33,14.12 2.42,180.01 -21.18,211.38 -13.7,18.22 -33.24,17.5 -62.85,17.72 -3.04,8.48 -2.57,23.8 2.05,31.06 6.13,9.63 10.41,12.26 25.39,12.21l291.99 -0.44c10.47,-0.04 27.36,2.4 35.49,-1.71l106.14 -76.76c2.98,-5.87 0.87,-218.2 1.04,-255.75 0.11,-24.96 -21.27,-31.24 -47.98,-39.26l-0.3 -22.53c13.17,-1.06 47.64,3.39 53.44,-5.13 7.04,-10.34 1.45,-44.78 -3.25,-52.53 -12.93,-21.33 -60.16,-35.88 -80.94,-37.99 -23.81,-2.42 -196.33,-0.11 -236.46,-0.16 -26.5,0.04 -124.35,11.49 -142.13,30.64 -8.54,9.2 -12.04,30.66 -8.02,47.4 8.05,33.48 54.89,2.5 70.96,44.63 6.51,17.06 20.08,76.96 16.61,97.21zm209.81 1251.1c-16,2.65 -17.17,-7.83 -9.67,-16.19 14.78,-1.41 17.06,7.3 9.67,16.19zm-368.72 -20.68c2.77,-9.06 23.56,-43.79 29.81,-54.78l166.71 -289.66c7.14,-12.48 12.82,-9.48 17.44,-22.89 11.76,-34.1 6.33,-25.4 24.46,-57.8l21.57 -0.1 0.63 290.29c-11.35,9.17 -20.28,12.33 -30.67,23.56 -27.66,29.87 5.17,58.77 -25.5,80.2 -11.88,8.3 -22.93,9.32 -39.44,12.57l-130.3 27.45c-19.59,3.92 -12.94,6.1 -34.71,-8.85zm387.59 -420.98c3.75,24.19 -26.77,21.26 -31.13,11.52 -4.14,-9.26 2.22,-15.33 9.81,-16.95 11.13,-2.38 14.21,0.28 21.31,5.43zm235.84 527.2c-4.39,-4.05 -26.76,-43.74 -33.35,-54.43 -5.86,-9.5 -12.2,-18.14 -17.85,-27.44 -8.68,-14.3 -4.86,-15.37 -23.55,-20.02 -43.25,-10.78 -104.87,-18.26 -140.63,-27.17 -2.46,-0.61 -1.84,-0.42 -3.96,-1.17 -2.89,-1.02 -2.57,-1.08 -3.63,-1.65l-19.61 -74c-6.55,-25.41 -15.31,-19.04 -19.02,-27.85 -1.99,-4.72 -0.5,-213.13 -1,-234.38 33.42,0.42 22.1,-9.46 51.28,41.39l167.95 293.47c20.85,37.17 6.28,13.61 11.18,32.3l34.72 57.68c4.79,8.04 13.43,21.89 16.3,30.29 2.64,2.11 15.22,24.39 18.03,29.31l19.06 29.72c23.39,39.02 42.93,78.65 70.14,122.74 4.58,7.42 13.76,24.59 18.57,30.05 11.97,13.57 5.04,-9.42 23.2,23.78l68.87 124.15c3.27,5.63 7.82,10.77 6.39,16.67 -2.37,9.74 -4.42,6.8 1.15,17.8 5.44,10.74 11.09,20.56 16.72,30.16 6.61,11.27 9.7,22.09 28.35,20.5 14.03,-1.2 24.03,-7.85 35.55,-11.98 5.04,-3.89 10.97,-6.51 16.4,-10.17 5.86,-3.94 9.84,-6.99 15.36,-11.42 15.64,-12.56 12.52,-16.9 2.99,-33.52 -4.98,-8.69 -13.27,-27.67 -19.09,-34.64 -10.88,-13.04 -4.41,8.84 -25.11,-30.27l-58.29 -104.5c-6.68,-12.3 -14.42,-23.85 -19.48,-35.55 15.87,-10.9 18.27,-14.35 3.7,-37.58l-44.53 -77.96c-5.31,-10.98 -16.04,-33.06 -21.53,-40.38 -9.69,-0.84 -14.43,3.39 -20.63,6.56l-6.47 -11.76c9.66,-17.81 27.62,-16.51 6.38,-53.09 -10.31,-17.75 -48.67,-91.29 -58.81,-105.6 -16.23,-22.92 -35.88,-1.06 -52.66,7.34 -15.66,-28.24 -162.06,-284.81 -166.87,-288.22 -3.18,-9.35 -13.61,-26.59 -19.22,-35.77 -37.07,-60.72 3.59,-20.14 13.07,-47.94 5.1,-14.94 -4.48,-18.21 9.15,-29.4 16.91,-13.87 19.37,-38.7 -0.49,-53.44 -11.73,-8.71 -6.39,-16.98 -7.19,-33.16 -1.81,-36.74 -44.19,-25.68 -48.94,-20.32 -5.98,6.75 -4.09,22.89 -3.84,33.91 -16.69,-0.16 -23.68,2.37 -29.28,-10.33 -4.62,-10.5 -1.57,-24.19 -2.59,-36.4 -2.76,-33.17 -35.72,-24.59 -50.8,-26.02l0.24 -44.12c45.36,-4.28 94.33,9.87 110.52,-17.04 13.3,-22.12 15.95,-83.03 12.79,-114.44 -2.33,-23.18 -18.76,-21.76 -41.78,-21.67 -21.25,0.09 -42.51,0.14 -63.76,0.17 -95.89,0.15 -93.53,-6.78 -95.18,31.69l46.43 -0.01 0.07 23.3 -73.8 0.07c-0.01,-19.25 3.16,-30.75 -18.37,-32.25 -16.74,-1.17 -28.71,3.99 -41.63,9.07 -54.11,21.3 -56.97,17.85 -50.75,43.19 -25.52,5.95 -69.45,22.99 -84.72,37.83 -26.69,25.94 -12.47,71.07 29.57,59.78 22.92,-6.16 86.56,-53.44 111.26,-71.6 8.19,-6.02 13.72,-4.67 26.11,-4.7 10.24,-0.03 20.48,0.14 30.5,-0.15l-0.15 101.33c-22.79,-0.67 -39.98,-2.33 -48.53,13.89 -9.26,17.57 3.24,32.23 -10.29,49.85 -15.7,2.65 -44.98,0.76 -62.13,0.67 -23.45,-0.13 -37.08,-0.77 -46.64,14.51 -22.87,-1.7 -49.67,-6.86 -72.54,-10.03 -23.8,-3.3 -48.46,-7.27 -72.16,-10.04 -9.89,-1.15 -10.26,-0.49 -15.23,-6.63 -33.38,-41.18 -83.61,-15.15 -78.43,21.41 2.89,20.37 24.72,35.41 49.78,31.78 14.56,-2.11 20.57,-12.74 28.85,-13.18 8.39,-0.44 168.26,24.24 174.87,28.22 16.48,9.93 22.76,33.69 23.14,59.11 0.27,17.98 -0.92,21.43 -8.54,33.44l-192.61 336.02c-16.6,-7.41 -33.18,-35.93 -51.27,-7.71 -20.72,32.32 -41.65,72.23 -61.56,106.17 -22.07,37.63 -2.55,33.84 12.93,52.39l-7.45 17.14c-21.14,-8.44 -29.8,-26.6 -44.8,0.18l-53.82 90.57c-17.98,29.5 0.61,30.01 12.84,42.98l-5.98 15.28c-21.3,-8.21 -21.74,-17.7 -36.36,7.85l-45.16 73.99c-8.21,17.62 12.39,27.13 20.1,35.42 -12.7,23.2 -27.44,45.46 -41.32,69.24 -5.96,10.21 -20.33,25.4 -10.73,38.36 5.14,6.94 21.46,18.06 30.31,23.43 7.19,4.36 28.1,16.05 38.89,16.23 14.02,0.23 21.32,-17.35 27.33,-27.49 3.02,-5.11 7.88,-12.45 10.39,-18.24 4.84,-11.15 -3.32,-10.65 -0.86,-17.55 1.65,-4.64 16.23,-28.01 19.81,-33.9l61.52 -104.56c10.26,-18.24 3.94,7 25.54,-28.11l62.12 -102.33c6.87,-11.97 12.15,-23.28 18.55,-34.87 5.16,-5.22 17.39,0.43 32.43,-21.58 25,-36.57 38.41,-59.98 61.17,-98.44 23.16,17.65 16.75,13.75 51.54,6.48l114.11 -23.46c17.29,-3.48 41.06,-7.19 56.29,-12.15 3.55,49.24 -0.26,46.76 24.62,67.66 4.07,57.59 -10.15,78.76 16.26,89.47 6.63,2.69 5.61,0.44 8.13,5.44l1.56 117.45 -4.23 2.57c-2.93,2.2 -0.87,-0.01 -2.69,2.41 -5.17,6.85 -3.83,74.35 -3.4,77.31 2.95,20.17 50.19,21.77 72.4,20.09 13.88,-1.05 27.49,-4.21 37.25,-9.81 11.52,-6.59 10.56,-18.34 9.44,-35.48 -0.92,-14.15 -2.09,-29.11 -3.54,-43.36 -2,-19.56 -5.06,-18.46 -22.3,-22.74l-4.35 -111.8c16.68,-15.64 11.98,-21.15 11.97,-58.73 -0,-22.92 0.19,-45.92 -0.06,-68.83 19.73,-0.27 28.11,-8.93 33.12,-23.38 17.57,2.73 149.97,26.33 155.34,29.61 9.13,5.58 5.02,15.04 28.57,18.33 23.51,3.28 19.42,-2.39 30.06,15.39 5.19,8.67 29.57,52.8 34.83,55.64 -2.3,-11.83 -17.9,-29.24 -22.54,-42.33zm-692.45 -1121c2.96,-2.22 1.04,-2.25 8.54,-2.73l80.64 -1.43c22.89,-0.46 15.61,0.51 27.34,-6.4 7.52,-4.43 49.35,-3.79 61.62,-3.97 17.08,-48.02 20.17,-104.6 20.1,-160.98 -0.29,-50.53 -8.07,-87.63 -20.02,-130.91 -11.23,0.06 -22.45,-0 -33.68,0.01 -15.78,0.03 -18.09,2.01 -27.68,-5.87 -9.14,-7.52 -8.72,-9.11 -24.26,-9.13l-65.5 -0.07c-17.56,0.02 -24.09,-1.15 -26.91,-2.7 6.86,23.73 35.54,140.17 -0.19,324.19zm-2619.56 1472.14c3.43,-7.24 224.7,-186.01 246.06,-202.06l45.3 -35.6c-24.21,1.43 -34.69,-6.27 -40.73,-14.39 -5.88,-7.9 -2.44,-12.91 -12.69,-16.04 -100.7,59.22 -219.79,129.2 -338.23,189.57 25.43,19.17 81.32,70.66 100.29,78.5zm735.29 -818.98c-27.85,31.92 -64.15,62.28 -98.32,75.31 -11.75,4.48 -23.27,6.92 -34.13,6.68 -11.81,-0.26 -24.64,-4.37 -34.42,-12.21 -10.81,-8.66 -16.5,-20.68 -16.19,-34.55 0.32,-14.37 7.02,-31.96 23.6,-52.64 43.69,-54.5 87.34,-88.68 123.53,-102.48 21.16,-8.07 47.22,-11.81 66.2,3.4 41.99,33.65 -5.41,88 -30.28,116.5zm-410.29 412.96c6.88,0 13.1,2.79 17.61,7.3 4.51,4.5 7.3,10.73 7.3,17.61 0,6.87 -2.79,13.1 -7.3,17.61 -4.51,4.51 -10.73,7.3 -17.61,7.3 -6.87,0 -13.1,-2.79 -17.61,-7.3 -4.5,-4.5 -7.3,-10.73 -7.3,-17.61 0,-6.88 2.79,-13.11 7.3,-17.61 4.51,-4.51 10.74,-7.3 17.61,-7.3zm182.05 11.72c15.84,-5.36 35.86,8.82 57.3,24.01 19.8,14.02 40.83,28.92 60.44,29.74 56.85,2.41 129.67,-20.19 197.75,-55.06 71.53,-36.64 137.79,-86.82 174.78,-135.8 10.93,-14.46 19.07,-32.1 23.96,-50.82 6.17,-23.56 7.2,-48.83 2.17,-71.6 -5,-22.7 -16.04,-42.93 -34,-56.49 -8.39,-6.34 -18.3,-11.22 -29.81,-14.24 -20.01,-5.23 -71.28,12.02 -131.14,37.77 -53.92,23.19 -361.8,177.85 -400.39,220.33 -3.15,3.46 -10.77,7.69 -15.7,6.91 -14.71,-2.33 11.76,-42.39 15.33,-47.76 19.79,-29.76 47.29,-62.81 77.78,-91.46 26.47,-24.88 55.21,-46.46 83.12,-59.72 10.28,-4.88 19.76,-9.37 29.65,-13.61 9.9,-4.24 20.21,-8.24 32.15,-12.15 7.81,-2.56 18.12,-8.05 29.87,-15.81 45.2,-29.89 83.18,-67.74 114.76,-114.68 16.71,-24.83 30.35,-52.03 34.95,-78.14 4.57,-25.96 0.17,-50.88 -19.13,-71.33 -22.09,-23.41 -50.84,-31.71 -82.65,-28.32 -32.96,3.51 -68.85,19.32 -102.15,42.64 -33.33,23.34 -64.05,54.2 -86.64,87.78 -27.59,41.02 -43.48,83.21 -35.22,132.77 2.85,17.07 5.13,30.8 -10.66,47.49 -9.46,10.99 -28.12,26.13 -39.51,36.26 -17.76,15.79 -35.45,31.52 -50.19,47.15 -15.65,16.59 -32.65,36.44 -48.22,57.03 -13.5,17.87 -25.92,36.3 -35.42,53.61 -7.77,9.06 -17.01,12.74 -25.62,25.55 -5.87,8.74 -9.71,18.72 -12.31,32.02 3.85,1.79 5.15,2.97 9.83,3.59l6.48 0.85c-33.85,5.94 -62.96,16.37 -94.98,28.18 4.21,-24.3 28.7,-78.69 58.44,-141.58l-1.48 3.14 -144.08 -35.12c1.09,-2.51 0.57,-0.98 1.81,-3.35l144.23 34.32c45.48,-96.13 103,-211.76 119.14,-270.05 -36.32,72.04 -188.37,176.17 -251.59,217.37 -16.61,24.6 -31.55,51.4 -45.29,78.29 -9.2,18 -77.7,155.45 -88.89,185.78 69.56,-25.56 130.51,-47.61 161.45,-57.76 7.41,-2.43 2,-0.26 9.96,1.37l1.18 0.22c-2.64,0.9 -5.26,1.78 -7.88,2.63 0.94,14.53 19.44,16.88 36.22,19.01 5.89,0.75 11.56,1.47 16.25,2.67 8.67,2.22 14.15,6.04 12.02,14.39 -3.65,14.27 -1.33,19.65 4.06,21.02 4.43,1.13 10.97,-0.16 18.07,-1.56 15.07,-2.97 30.91,-6.42 39.5,9.77l-57.69 19.67c-3.53,0.57 -7.2,0.78 -10.7,1.87l-246.09 77.01 -426.07 241.96c161.03,24.47 499.43,-181.71 690.44,-293.09 13.18,-10.6 64.08,-25.82 92.71,-31.76l-0 0c8.54,-1.39 17.2,-3.31 26.12,-5.93 42.45,-11.87 64.42,-27.83 98.88,-53.9 19.24,-14.56 36.52,-27.62 52.72,-33.1zm435.15 -245.3c48.08,69 -199.36,194.2 -249.19,212.32 -22.15,8.06 -95.07,33.69 -113.08,11.26 -18.06,-22.48 33.87,-62.74 50.33,-73.82 16.1,-10.84 132.56,-82.02 218.47,-123.51 47.65,-23.02 86.09,-36.84 93.47,-26.25zm-786.86 262.18c-54.94,18.33 -187.94,67.61 -304.75,110.9 -87.07,32.26 -165.15,61.2 -195.38,71.55 -25.98,8.9 -54.87,26.74 -77.24,49.52 -17.32,17.63 -30.69,38.18 -35.63,59.71l680.6 -213.48c1.21,-0.95 2.57,-1.67 4.02,-2.2l50.09 -18.48c-12.82,-10 -39.85,6.81 -53.32,-1.09l-24.06 2.59 21.04 -5.13c-7.48,-8.83 0.92,-25.14 -2.17,-28.2 -9.73,-9.59 -56.48,-0.67 -63.2,-25.71zm-55.11 -201.12c-5.25,3.46 -188.91,139.67 -210.41,154.14 -39.9,26.87 -293.73,246.43 -320.98,204.6 -59.7,-91.65 166.57,-155.31 387.7,-298.06 88.7,-57.25 163.8,-121.11 244.25,-202.07 70.27,-70.72 167.72,-167.78 182.87,-129.11 30.16,76.98 -280.61,268.64 -283.43,270.49zm-587.13 139.28c-7.49,4.02 -16.51,9.24 -25.98,15.43l21.78 17.39 -1.54 1.19 -21.86 -17.52c-9.76,6.46 -19.94,13.92 -29.37,22.13l20.75 17.43 -1.46 1.29 -20.59 -17.59c-8.34,7.37 -16.04,15.32 -22.28,23.67l23 18.3 -1.37 1.38 -22.92 -17.92c-6.06,8.44 -10.58,17.28 -12.74,26.31l115.5 101.07c26,-104.93 151.65,-145.45 235.04,-188.93l-115.57 -78.19 1.15 -0.62c-7.37,3.98 -14.83,7.97 -22.37,11.99l21.67 16.41 -1.56 1.17 -21.67 -16.74c-10.73,5.72 -21.61,11.48 -32.59,17.28l21.74 17.67 -1.56 1.17 -21.78 -18c-23.92,12.63 -48.31,25.46 -72.75,38.51l52.37 43.9 -4.29 2.94 -52.57 -44.44 -6.2 3.32zm-94.59 91.56c-1.86,7.82 -1.93,15.8 0.31,23.8 6.87,32.3 58.15,93.57 106.5,123.17 31,18.98 69.72,13.01 108.47,-8.86 -8.39,3.76 -18.28,7.53 -28.44,10.58 -18.61,6.22 -38.79,10.42 -52.46,4.46 -1.26,-0.47 -2.44,-1.01 -3.53,-1.64 -12.91,-7.47 -20.83,-24.59 -17.3,-44.09 -37.26,-29.2 -75.16,-67.62 -114.78,-99.84 0.24,-2.23 0.5,-4.03 1.22,-7.58zm742.11 -381.64c6.02,-5.65 11.85,-10.75 17.97,-16.58l0.36 -0.34 0.72 -0.69c11.99,-11.53 24.91,-26.98 39.23,-43.43l-0.22 0.25 -87.79 -48.09c-12.13,6.85 -22.85,13.33 -31.56,18.87 -10.71,6.81 -21.69,14.13 -32.88,21.85l28.24 14.15 -0.93 1.27 -28.48 -14.5 1.16 -0.91c-18.65,12.87 -37.91,26.86 -57.57,41.51l63.22 34.3 -4.02 3.31 -63.12 -34.6 1.9 -1.5c-8.83,6.59 -17.74,13.31 -26.72,20.12l24.29 14.9 -1.43 1.33 -24.42 -15.04 0.65 -0.5c-8.86,6.72 -17.78,13.53 -26.74,20.38l0.76 -0.53 24.17 15.52 -1.34 1.41 -24.34 -15.83c-9.8,7.49 -19.65,15.03 -29.52,22.56l0.87 -0.59 26.6 15.63 -1.24 1.5 -27.06 -15.9c-16.94,12.92 -33.96,25.83 -50.95,38.46l22.13 15.97 -1.56 1.17 -21.94 -16.11c-9.89,7.35 -19.78,14.6 -29.62,21.7l1.37 -0.84 24.49 16.37 -1.26 1.17 -24.61 -16.7c-18.62,13.43 -37.13,26.33 -55.37,38.35l60.01 39.8 -4.29 2.94 -59.82 -40.04 0.43 -0.28c-3.66,2.39 -7.31,4.75 -10.94,7.07 -5.12,3.26 -10.37,6.54 -15.73,9.82l22.85 16.97 -1.54 1.19 -23 -17.14 0.06 -0.04c-28.47,17.39 -60.17,35.12 -93.71,53.25l1.06 -0.57 114.96 77.89c101.2,-50.07 106.82,-62.18 229.89,-161.23l-111.17 -66.38 5.73 -4.22 110.85 66.17c32.92,-23.29 107.92,-85.85 150.91,-124.55zm-25.14 -111.43l86.47 46.91 -0.24 0.28c31.96,-36.47 70.89,-76.76 121.83,-89.31 6.53,-1.61 17.37,-1.63 21.75,-5.83 -48.72,-23.92 -132.95,-3.02 -197.13,31.76l24.27 11.44 -1.84 0.86 -24 -11.55c-10.01,4.79 -20.37,9.94 -31.11,15.44zm-575.22 376.61l20.33 17.9 1.56 -1.17 -20.21 -17.79 -1.68 1.06zm-127.83 88.5c-0.28,0.38 -0.56,0.75 -0.83,1.13l0.83 -1.13zm377.9 -231.96l24.44 17.9 1.29 -1.17 -24.29 -17.79 -1.44 1.06zm-87.58 55.35l22.88 17.94 1.46 -1.29 -22.7 -17.6 -1.64 0.94zm-33.93 19.19l25.6 18.27 1.37 -1.38 -25.12 -17.91 -1.85 1.03zm408.74 -284.89l28.78 14.2 0.96 -1.3 -28.58 -13.88 -1.16 0.98zm-62.43 42.82l28.87 15.74 0.95 -1.28 -28.53 -15.53 -1.28 1.07zm99.71 -65.27c-1.16,0.65 -2.31,1.29 -3.46,1.94l3.46 -1.94zm227.18 -52.28c-9.25,-7.53 -14.76,-11.19 -21.56,-14.81 -22.25,-11.85 -44.31,-29.02 -66.43,-39.79 -5.33,-2.59 -10.68,-4.88 -16.06,-6.93l3.52 1.39 18.76 21.17 2.6 2.93 21 23.7 -6.42 0.55 -20.45 -25.01 -2.98 -3.64 -17.78 -21.75c-17.77,-6.59 -35.79,-10.32 -53.96,-11.68l17.91 21.63 -2.94 -0.57 -17.43 -21.23c-13.88,-0.87 -27.85,-0.38 -41.86,1.25l15.93 21.04 -2.44 -0.03 -15.77 -20.74c-13.73,1.72 -27.5,4.53 -41.27,8.22l17.27 20.51 -2.3 0.56 -17 -20.51c-13.13,3.6 -26.25,7.99 -39.34,12.99l38.06 45.54 -4.82 2.27 -38.16 -45.9c-11.26,4.43 -22.48,9.3 -33.66,14.5l16.95 21.89 -1.7 0.95 -17.02 -21.96 0.58 -0.33c-10.73,5.01 -21.41,10.31 -32.02,15.8l0.29 -0.14 16.22 21.5 -1.71 0.93 -16.18 -21.58c-10.17,5.28 -20.28,10.74 -30.3,16.28l0.88 -0.37 16.48 22.19 -1.68 0.98 -16.73 -22.21c-10.42,5.77 -20.76,11.62 -30.98,17.47l2.13 -1.08 82.68 100.32c102.37,-61.22 232.9,-152.74 339.66,-116.3zm-807.4 215.08l17.45 20.72 1.71 -0.92 -17.45 -20.72 -1.71 0.92zm-108.34 52.98l16.21 21.62 1.7 -0.94 -16.22 -21.5 -1.7 0.82zm-32.31 15.39l16.81 22.31 1.68 -0.98 -16.48 -22.19 -2.01 0.85zm65.25 -31.31l17.02 21.96 1.7 -0.95 -17.02 -21.96 -1.7 0.95zm180.21 -89.54l85.35 103.78 4.86 -2.27 -85.61 -103.83 -4.6 2.32zm275.74 -144.19c-11.44,6.55 -22.76,13.07 -33.9,19.42l0.72 -0.39 17.42 21.14 -1.71 0.92 -17.41 -21.12c-10.47,5.97 -20.8,11.79 -30.96,17.34l0.78 -0.43 16.2 21.41 -1.71 0.92 -16.19 -21.4c-9,4.91 -17.87,9.6 -26.59,14l-6.92 3.49 17.44 20.7 -1.72 0.92 -17.45 -20.72 0.86 -0.46c-11.62,5.87 -23.99,12.13 -36.94,18.7l0.19 -0.09 38.23 45.74 -4.82 2.28 -37.93 -45.72 -32.43 16.45 16.99 21.93 -1.7 0.95 -17.02 -21.96 0.83 -0.47c-10.65,5.41 -21.56,10.94 -32.66,16.57l0.9 -0.43 16.22 21.5 -1.7 0.94 -16.2 -21.61c-10.13,5.13 -20.41,10.34 -30.78,15.59l1.01 -0.43 16.48 22.19 -1.68 0.98 -16.76 -22.26c-22.87,11.57 -46.2,23.34 -69.43,34.99l17.42 21.13 -1.71 0.92 -17.42 -21.14 1.53 -0.82c-11,5.52 -21.98,11.01 -32.87,16.44l16.14 21.33 -1.71 0.92 -16.18 -21.37c-24.61,12.26 -48.76,24.2 -71.75,35.41l41.04 45.71 -4.68 2.27 -40.8 -45.78 2.27 -1.15c-52.26,25.47 -98.33,47.08 -129.74,60.09 5.72,12.02 26.05,31.96 46.35,51.88 20.38,19.99 40.73,39.96 47.37,53.14l0.94 1.86c35.89,-8.62 276.63,-135.14 438.92,-224.81 31.09,-17.19 64.23,-36.91 97.99,-57.09l-82.79 -100.52zm-660.91 304.56c5.56,47.31 84.98,88.8 94.1,112.01 48.81,-12.52 62.73,-15.83 108.16,-34.19 -12.85,-25.5 -82.17,-80.28 -93.86,-105.3 -39.63,9.65 -65.14,12.22 -108.41,27.48zm83.98 36.81c-4.89,11.82 7.47,19.28 16.4,20.84 11.11,1.94 22.72,-6.79 17.89,-19.36 -4.83,-12.57 -27.58,-17.71 -34.3,-1.48zm743.78 150.43l0.06 10.09c22.19,-45.79 40.45,-85.89 52.02,-110.27l-5.68 0.08 -46.39 100.1zm138.63 113.02c13.18,6.3 5.67,33.08 52.04,29.72 17.88,-2.88 60.06,-52.94 70.25,-68.57 -17.43,3.85 -51.72,12.06 -80.54,21.33 -17.75,5.71 -33.42,11.81 -41.74,17.52zm408.19 -1504.67c72.99,0.18 146,1.78 218.83,1.8 16.72,0.01 97.78,3.75 105.13,-2.39 15.43,-12.9 -31.27,-43.24 -39.65,-63.73 -3.99,-1.61 -34.04,-38.68 -39.37,-44.94 -13.34,-15.65 -25.19,-29.19 -38.58,-44.77 -20.63,-24 -56.69,-67.5 -77.43,-89.66 -9.71,-10.38 -9.61,-13.51 -28.93,-13.76 -14.13,-0.19 -28.33,-0.06 -42.46,-0.07 -191.48,-0.09 -387.52,3.52 -578.7,7.56 -53.95,1.14 -108.6,3.96 -162.5,4.14 -18.63,0.07 -22.96,-1.42 -28.88,13.76l-22.09 61.42c-3.2,8.39 -8.85,22.7 -10.69,31.58l438.63 -22.47c3.6,-14.04 10.59,-19.76 23.18,-24.95 47.08,-19.41 97.91,24.56 56.02,50.38 -15.69,9.67 -39.11,11.97 -57.41,3.51 -5.53,-2.56 -10.35,-7.81 -15.56,-8.26l-89.31 5c-60.09,4.53 -121.85,5.32 -182.29,9.1 -60.07,3.76 -120.81,7.19 -180.96,9.88 -2.98,11.56 -8.63,25.94 -12.53,37.07 -27.52,78.43 -36.99,82.95 2.52,82.19 1.41,-0.03 4.17,-0.1 5.48,0.03 0.4,0.04 0.83,0.11 1.17,0.16 0.32,0.04 0.82,0.2 1.07,0.25 6.35,1.17 4.02,23.8 2.14,28.8 -1.7,4.52 -8.06,13.51 -10.87,18.78 -7.52,14.07 -5.67,36.33 -6.34,54.73 -0.7,19.35 -2.06,39.95 -1.66,59.48 0.63,30.93 72.67,32.24 72.67,-2.86 0,-18.52 -0.97,-40.5 -2.04,-59.15 -1.06,-18.53 0.77,-39.98 -7.09,-53.53 -2.6,-4.48 -9.61,-14.97 -10.85,-18.77 -1.42,-4.33 -0.73,-9.7 -0.76,-14.39 -0.08,-13.46 -0.3,-10.2 1.99,-12.11 6.78,-5.25 650.72,-3.89 718.13,-3.82zm-822.31 457.42c-5.25,-7.61 -12.42,-12.41 -16.75,-20.39 -12.75,4.35 -25.19,23.98 -38.3,26.5 -18.09,3.48 -32.18,9.21 -44.63,19 -11.59,9.12 -21.5,20.96 -27.72,35.93 -10.56,25.42 -2.56,38.65 0.26,54.19 -9.3,5.98 -21.42,17.34 -30.93,25.46 -5.74,4.89 -30.75,19.34 -17.99,30.88 7.35,6.65 15.2,0.5 20,-3.41 5.67,-4.63 9.81,-8.37 15.43,-12.83 9.85,-7.81 25.16,-23.89 32,-21.59 2.78,13.26 -36.94,71.2 -15.44,77.89 14.89,4.63 15.69,-12.39 22.88,-29.56 4.07,-9.71 10.26,-28.19 16.06,-35.65 45.74,8.76 83.15,-16.2 100.33,-41.79 9.66,-14.38 16.76,-37.01 10.37,-58.25 -8.67,-28.83 -31.64,-32.01 -36.93,-36.36l11.36 -10zm247.33 204.78c6.3,4.46 10.72,12.71 17.02,17.65 33.64,1.26 72.11,-33.08 85.98,-50.14 19.56,-24.05 39.32,-55.59 33.91,-99.18 -7.9,-16.88 -7.28,-21.74 -21.97,-32.35 -36.37,-26.28 -89.12,5.7 -113.41,32.86 -17.2,19.22 -32.38,38.78 -42.6,67.87 -5.54,15.75 -2.84,10.22 16.01,33.59l25.06 29.71zm-183.31 -433.13c-18.83,-14.72 -27.48,-24.75 -44.63,-40.27 -10.4,-9.41 -17.08,-18.2 -28.19,-28.42 -29.02,-26.71 -47.01,-72.64 -97.48,-71.82 -58.75,0.95 -109.51,69.4 -101.17,123.38 5.59,36.21 27.41,45.81 50.21,62.94 37.2,27.95 59.8,50.25 92.13,77.58l22.46 20.05c1.72,1.79 1.86,2.28 3.44,3.61 3.43,2.91 1.06,1.07 3.61,2.35 2.96,-7.17 2.85,-19.46 4.96,-27.85 12.49,-49.52 61.48,-102.61 110.17,-108.07l-15.5 -13.48zm150.8 456.16c-11.13,-5.61 -26.89,-24.66 -32.56,-39.56 -7.32,-19.25 -4.17,-41.45 1.83,-60.53 11.02,-35.04 36.17,-65.3 57.66,-83.88 21.66,-18.73 58.15,-46.02 101.41,-39.11 29.35,4.69 47.8,24.46 56.73,49.29 1.58,4.39 3.11,9.56 3.98,14.48l1.82 10.83c1.49,3.35 -0.55,0.34 2.09,2.83 -1.86,-12.09 2.06,-24.91 -0.74,-40.87 -6.43,-36.73 -29.61,-43.57 -63.03,-64.35 -35.33,-21.97 -70.69,-44.02 -103.12,-68.09 -34.54,-25.63 -63.36,-44.42 -98.39,-72.79 -35.86,-29.05 -29.28,-31.37 -52.2,-27.07 -41.58,7.8 -75.69,40.81 -92.52,78.68 -4.35,9.78 -7.52,20.78 -9.46,32.98 -3.38,21.3 -2.29,23.23 6.46,33.38 25.81,29.96 50,63.34 74.35,96.89 30.97,42.66 75.41,109.48 106.89,149.21 12.9,16.28 23.12,31.49 49.3,36.27 -4.83,-4.02 -9.42,-5.46 -10.5,-8.58zm435.33 -657.94l-347.52 -0.21c-7.91,97.63 -67.67,152.58 20.68,208.67 55.19,35.03 155.02,46.21 236.75,46.23 85.54,0.02 177.03,-9.22 236.75,-46.2 25.95,-16.06 55.73,-46.4 46.35,-92.6 -6.8,-33.48 -24.25,-67.85 -27.05,-115.85l-165.96 -0.04zm342.74 246.33c0.46,14.19 2.09,82.91 -1.65,91.39 -2.95,6.68 -8.37,6.52 -15.61,8.54 -112.81,31.54 -227.43,66.26 -339.82,97.37 -23.96,6.63 -47.94,13.72 -71.61,20.35l-72.03 19.94c-0.1,-16.73 -1.85,-96.03 0.76,-105.56l499.96 -132.04zm-30.12 -60.98c-14.24,-3.86 -84.34,-51.31 -92.17,-51.67 -0.28,74.67 -68.1,109.33 -130.2,127.31 -126.2,36.55 -548.17,46.09 -484,-165.63l13.32 -50.07c-1.75,-1.63 3.63,-1.87 -5.38,-1.24 -10.62,4.82 -118.08,18.07 -123.83,22.46 4.07,18.8 10.18,64.71 5.65,82.76 -6.83,27.24 -23.85,34.68 -47.37,44.41 6.87,9.59 87.79,72.39 98.24,80.23 23.48,17.62 79.86,58.09 103.68,73.19 18.19,11.53 35.86,23.35 54.02,35.15 37.89,24.61 76.7,36.87 79.43,97.38 1.48,32.82 -4.75,48.7 -14.16,73.63 5.82,5.62 28.88,16.85 37.41,22.02l109.92 65.49c12.26,7.52 24.09,16.78 35.81,23.66 16.78,9.85 33.08,1.82 45.59,-5.51 24.42,-14.32 49.56,-28.47 74.02,-42.04 50.48,-28 98.93,-57.59 149.52,-85.32 25.74,-14.1 87.05,-48.22 111.67,-63.78 16.87,-10.66 13.51,-23.07 7.35,-27.41 -9.56,-6.74 -7.74,5.08 -8.79,-30.8 -6.06,-1.61 -21.33,2.72 -28.67,4.31l0.17 34.97c-6.59,2.46 -15.28,8.02 -22.19,12.07l-64.19 36.27c-14.72,8.53 -28.73,15.83 -43.47,24.47l-208.74 118.24c-9.04,2.5 -1.68,1.52 -4.77,-0.59 -2.79,-11.99 -1.57,-97.7 -0.68,-115.17 2.16,-42.24 17.78,-44.31 61.01,-56.65l272.32 -78.56c81.37,-23.48 82.28,-22.36 82.28,-93.19 0,-12.16 1.38,-48.18 -1.07,-56.96 -8.17,-29.4 -54.9,-43.28 -61.74,-53.41zm1159.56 1764.83c-0.27,12.98 -0.03,26.13 -0.05,39.13 -0.02,11 -1.97,27.6 10.11,27.24 12.11,-0.36 9.96,-16.76 9.95,-28.69 -0.01,-11.97 0.59,-25.52 -0.21,-37.54l-19.81 -0.14zm-919.4 382.77c-13.23,-6.68 -44.56,-36.04 -58.03,-43.05 -0.54,40.96 -6.87,67.96 39.43,59.89 10.87,-1.9 16.89,-5.93 18.6,-16.84zm919.29 -568.76l0.04 163.12 20.18 -0.22 -0.22 -146.92c-0,-8.93 1.78,-23.98 -3.61,-29.39 -2.1,-2.12 -16.41,-8.95 -16.4,13.42zm136.58 416.74l-51.86 7.58c-3.75,2.03 -104.26,16.78 -118,18.71 -39.96,5.64 -79.77,12.68 -119.44,18.54 -79.92,11.8 -159.16,24.23 -238.97,37.04l-418.44 65.1c-24.59,3.72 -36.18,7.42 -62.65,3.81 7.17,12.11 24.61,32.65 39.27,39.37 21.78,10 43.12,4.86 67.69,1.17 24.04,-3.62 122.69,-21.37 137.03,-21.13 1.88,3.14 7.32,31.37 37.52,27.16 9.84,-1.37 16.3,-6.72 21.09,-12.3 11.9,-13.83 1.89,-22.8 11.1,-26.56 9.43,-3.86 425.93,-70 449.29,-73.67 25,-3.94 50.2,-7.79 75.09,-12.04 17.94,-3.06 60.99,-11.98 76.89,-11.49 0.81,1.45 5.76,30.97 34.42,26.95 19.19,-2.69 24.81,-15.94 26.11,-35.91 34.99,-6.03 41.97,-16.14 42.17,-48.11 0.02,-3.17 0.27,0.61 -0.11,-2.37 -0.46,-3.57 0.25,-1.2 -0.93,-3.15l-7.25 1.29zm-5.57 -527.52c8.11,-6.56 18.48,-22.55 24.1,-32.85 7.11,5.32 17.39,17.55 24.12,25.37 14.77,17.19 18.74,19.29 14.32,28.54 -9.4,19.65 -26.34,42.83 -43.42,51.46 -4.08,-34.15 -6,-46.07 -19.13,-72.52zm40.4 -67.6c1.79,-16.14 9.41,-33.31 10.18,-52.7l46.5 0.11c-0.96,37.19 -11.33,64.2 -15.96,92.94 -14.71,-13.57 -25.5,-28.59 -40.71,-40.35zm1.41 -150c6.21,-4.29 34.43,-32.8 38.67,-39.09 4.05,3.89 5.29,13.14 7.17,21.07 4.65,19.59 9.11,49.26 9.61,68.82l-46.19 -0.31c-1.32,-9.21 -2.28,-17.45 -4.02,-26.52 -1.43,-7.47 -4.81,-16.91 -5.26,-23.97zm-40.52 -64.58c3.88,-11.5 9.28,-22.83 12.83,-35.64l7.91 -35.61c0.08,-0.24 0.4,-0.48 0.47,-1.02 0.06,-0.54 0.28,-0.69 0.49,-1 17.95,12.93 31.15,29.74 41.8,52.3l-40.11 49.04c-11.59,-14.89 -6.83,-12.35 -23.39,-28.07zm-65.59 -26.74c4.49,-13.79 28.13,-47.84 48.05,-52.47 -3.27,21.78 -10.72,38.46 -14.67,58.08 -13.59,-3.47 -16,-5.74 -33.38,-5.61zm-75.45 30.48c22.24,14.52 35.98,20.94 52.24,46.64 13.08,20.65 22.13,40.7 27.96,69.31 8.03,39.43 5.84,144.94 5.56,190.52 8.82,-0.07 15.18,-2.49 22.31,-4.26 6.58,16.83 11.65,35.07 16.93,53.79 -19.33,-3.49 -28.82,-19.06 -39.21,-30.42l0.04 76.75c21.79,10.58 30.71,19.29 63.89,17.61 22.35,-1.13 44.41,-12.19 57.79,-22.24 29.73,-22.32 52.08,-52.27 69.46,-91.76 37.59,-85.42 40.89,-183.76 22.11,-276.71 -9.4,-46.53 -23.96,-81.57 -45.46,-115.73 -50.39,-80.04 -135.13,-101.94 -201.01,-22.2 -18.31,22.16 -50.91,84.37 -52.61,108.7zm-614.47 755.02c-4.13,-1.51 -38.82,-9.59 -27.19,-19.92 5.11,-4.54 22.81,3.96 27.19,19.92zm-204.67 -63.91c0.08,10.71 0.51,10.55 3.09,18.99l14.8 0.1c-0.33,8.2 1.26,9.57 -3.26,14.76 -18.15,7.89 -28.93,-14.52 -30.31,-29.4 -1.46,-15.67 -0.65,-177.06 0.11,-187.07 8.31,5.41 8.54,2.55 17.43,5.12l1.12 100.78c-0.08,12.92 2.05,18.28 14.81,19.87l-0.24 53.2 -17.53 3.65zm833.48 -341.8c15.06,-3.31 24.78,7.84 29.63,16.42 6.35,11.23 4.27,27.61 4.34,42.37 0.13,26.63 2.3,221.43 -1.3,232.8 -8.41,26.57 -40.42,32.75 -54.93,6.1 -6.17,-11.35 -3.67,-28.83 -3.67,-42.83l-0.01 -187.35c-0.02,-32.87 -4.6,-60.79 25.94,-67.5zm-194.99 83.43c18.7,-6.5 41.96,-17.26 62.93,-22.05 -6.7,9.81 -15.35,16.36 -21.73,29.22 -11.31,22.79 -15.76,83.87 -52.17,95.99 3.75,-27.31 18.89,-18.91 24.99,-45.02 -3.57,-1.65 -3.56,1.6 -13.68,-4.39l0.69 -8.71c7.66,-4.48 16.35,-0.97 20.95,-10.61 3.27,-6.85 6.79,-18.36 3.52,-25.71 -7.84,-2.89 -18.41,9.7 -24.8,13.21l-0.69 -21.93zm12.77 -116.07c15.53,-11.94 22.99,23.76 11.28,30.74 -14.07,8.38 -22.83,-17.37 -14.59,-27.81 2.94,-3.73 1.19,-1.3 3.31,-2.93zm254.68 377.96c-12.24,22.17 -68.15,35.47 -101.32,40.17 -60.65,8.58 -132.4,9.48 -191.53,-10.13 -31.96,-10.61 -73.59,-36.13 -59.23,-76.44 4.45,-12.5 20.27,-44.06 21.47,-49.79 -19.43,5.45 -106.76,18.2 -133.16,22.3l-335.35 52.39c-21.96,3.46 -45.9,8.13 -67.2,10.62l1.18 -33.11c4.5,-2.38 18.72,-3.91 18.15,-18.42 -0.53,-13.46 -6.63,-14.62 -6.59,-30.91 0.1,-43.39 5.89,-50.85 -23.88,-53.11l-0.05 -29.1c40.25,-8.72 87.64,3.11 89.4,-22.36 1.19,-17.21 -0.01,-38.95 0.05,-56.69 0.15,-44.34 -0.8,-119.45 19.48,-150.35 18.17,-27.69 39.63,-29.21 80.54,-32.99 69.2,-6.4 139.52,-11.24 209.09,-15.84 34.29,-2.27 71.26,-4.27 105.4,-7.88 17.43,-1.84 35.33,-2.03 52.82,-4.05 19.49,-2.24 29.27,4.67 33.9,20.52 8.13,27.82 -3.45,175.86 -6.03,213.82 -4.26,62.75 -22.05,134.65 -42.22,184.42 -7.31,18.05 -8.96,26.18 4.51,39.1 45.81,43.96 181.4,38.94 240.8,30.49 30.87,-4.39 89.78,-22.65 89.78,-22.65zm-901.3 -407.09c-0.08,-13.35 8.69,-24.6 23.68,-18.11 10.43,4.51 8.86,19.23 8.85,32.64 -0.03,19.56 2.89,31.19 -8.24,39.03 -5.62,3.96 -2.36,-0.97 -4.06,4.54l0.08 45.02c0.01,23.86 4.45,48.64 -10.33,48.43 -8.96,-0.13 -9.94,-6.7 -9.98,-15.02l-0.01 -136.52zm755.51 -94.59c29.61,-8.65 30.04,49.83 7.49,54.7 -28.15,6.08 -33.8,-47.02 -7.49,-54.7zm-213.45 -55.31c11.29,-1.46 21.26,-1.86 23.76,9.57 2.61,11.91 -6.6,17.25 -17.12,18.21l-197.87 20.04c-12.15,1.46 -22.88,0.76 -25.01,-10.43 -2.31,-12.15 6.97,-16.28 17.27,-17.49l131.84 -13.43c22.21,-2.39 45.15,-3.61 67.14,-6.47zm-514.72 26.42c1.58,50.89 -23.19,54.78 -21.72,-1.46 0.18,-7.07 2.96,-16.56 1.46,-22.97 -0.67,-2.85 -6.64,-9.22 -9.34,-15.57 -9.49,-1.6 -11.03,-0.76 -16.31,-6.97 -10.61,-12.49 -13.69,-34.98 -13.49,-51.82 4.31,2.35 8.48,7.93 13.02,11.67 14.67,12.06 38.47,17.69 24.39,40.92l10.44 13.96c5.1,-2.7 5,-6.96 10.13,-11.11 -8.01,-26.35 -3.59,-24.55 25.44,-44.5 5.41,-3.72 9.31,-7.85 14.02,-10.78 -0.93,20.91 -3.57,58.64 -30.6,58.13 -1.5,3.48 -2.26,5.74 -4.33,8.76 -2.46,3.62 -4.19,4.03 -4.82,8.56 -0.7,5 1.51,17.15 1.7,23.17zm271.48 -123.41c0.02,-27.39 0.43,-10.08 14.48,-34.59l27.5 0.05c13.52,22.52 13.38,6.39 13.38,41.8 0,47.86 -38.48,45.23 -49.06,33.05 -8.47,-9.75 -6.3,-24.06 -6.3,-40.31zm95.96 -8.72c-0.01,-8.67 2.44,-9.82 6.34,-15.5 9.67,-14.06 5.76,-9.52 31.96,-10.58 18.03,24.55 15.53,13.84 15.54,53.67 -9.91,1.65 -21.33,5.33 -31.6,7.64 -25.63,5.78 -22.2,-0.6 -22.24,-35.22zm260.05 -61.05l0.04 29.8 -167.32 48.7c0.89,-19.96 -2.95,-16.36 5.15,-29.95 4.38,-7.35 7.89,-15.58 11.85,-23.4l150.28 -25.15zm30.69 -132.01c-5.94,7.43 -6.14,6.84 -6.03,20.21 0.06,8.29 0.03,16.59 0.03,24.87 -17.52,1.43 -32.11,2.76 -34.91,18.91 -3.42,19.78 10,11.7 10.37,30.22l-0.76 9.96c-0.07,0.33 -0.35,1.42 -0.41,1.22 -0.06,-0.2 -0.25,0.81 -0.45,1.19 -19.98,4.13 -44.01,6.95 -64.8,10.09l-130.26 20.77c-41.9,6.76 -28.49,4.45 -70.61,4.65 -0.63,-12.84 0.26,-25.72 -13.24,-26.07 -14.2,-0.38 -12.81,13.18 -13.7,25.52 -12.82,2.39 -312.5,1 -316.38,-0.23 -8.96,-17.54 7.44,-40.69 -25.63,-41.18 -0.07,-7.86 0.15,-36.64 -1.75,-41.84 -2.28,-6.25 -12.69,-15.09 -24.46,1.17l0 40.76c-28.07,-0.1 -21.48,12.57 -23.87,36.22 47.67,-0.01 74.81,-5.09 104.35,31.01 49.17,1.46 100.96,-0.1 150.46,-0.11 16.58,-0 21.54,-2.47 29.04,8.33 8.58,12.36 6.2,13.83 6.12,31.92 -0.27,64.17 -40.39,62.2 -82.7,67.37 -11.52,1.41 -23.2,2.65 -35.29,2.72 -52.53,0.34 -1.24,-65.07 -76.96,-108.5 -24.07,-12.4 -43.32,-9.53 -74.04,-9.52 -32.36,0.01 -46.8,1.69 -58.37,25.92 -9.42,19.71 -5.11,131.93 -5.1,162.89l0.47 252.74c0.04,14.13 0.4,24.39 6.7,34.55 7.87,12.68 20.67,18.14 21.65,20.92l0.79 67.69c-13.67,1 -26.86,-1.68 -27.3,13.39 -0.48,16.72 15.87,11.84 27.28,14.71 -1.41,29.62 0.15,62.75 0.46,92.7 0.22,22.33 -14.95,51.82 11.85,73.84 19.03,15.63 51.51,11.2 81.12,11.33 8.56,0.04 35.69,0.1 27.65,-15.36 -6.8,-13.09 -34.58,-3.96 -39.35,-8.87 -2.73,-2.8 -1.04,-25.61 -1.85,-34.81 21.13,2.84 91.02,57.26 111.31,72.17 18.14,13.34 34.85,25.48 52.75,38.74 8.54,6.33 47.73,32.94 49.34,41.05 -5.15,4.73 -22.51,6.85 -28.99,2.52 -28.33,-18.94 -74.87,-55.21 -105.85,-77.15 -34.4,-24.35 -8.72,-7.82 -51.12,-3.45l2.67 2.37c0.23,0.2 0.61,0.5 0.86,0.72 26.99,22.33 97.01,69.47 116.04,87 -48.64,6.57 -35.08,12.27 -78.46,-21.48 -20.65,-16.07 -41.56,-32.16 -62.24,-48.14 -5.97,-4.61 -10.05,-7.64 -15.41,-12.15 -17.77,-14.92 -32.69,7.33 -64.53,-18.26 -42.6,-34.23 -15.5,-35.09 -31.81,-50.99 -4.08,-3.98 -10.5,-8.59 -13.03,-14.27 16.16,-0.38 22.48,-1.07 23.14,-8.85l-93.06 11.57c-26.48,3.76 -72.97,6.96 -87.39,21.54 -16.06,16.23 -13.07,38.07 6.63,55.02l100.42 89.72c8.98,8.28 19.13,16.69 28.85,25.01 18.63,15.95 36.17,36.53 70.59,38.67 20.8,1.3 157.58,-23.21 190.4,-27.96 125.56,-18.16 250.48,-40.11 375.74,-58.58l283.13 -43.55c29.99,-4.61 65.9,-12.39 95.35,-14.45 6.28,-2.76 55.74,-8.9 66.86,-10.67 23.37,-3.7 46.66,-4.1 56.76,-20.28 13.17,-21.09 -0.2,-38.59 -19.32,-48.83 -16.41,-8.79 -33.8,-17.86 -49.75,-27.29 -46.48,-27.48 -62.53,-22.55 -73.38,-81.97 -7.74,-42.41 -7.88,-104.08 -8.04,-147.59 -0.38,-101.04 2.53,-207.72 -2.56,-307.87 -2.56,-50.32 -16.78,-86.06 -42,-113.54 -28.06,-30.57 -57.45,-37.93 -110.56,-44.78l0.33 -68.26c6.98,-6.2 17.71,-16.15 8.46,-30.71 -6.01,-9.46 -16.84,-11.04 -32.12,-11.39 0.28,-20.17 6.52,-53.84 -20.13,-44.96z"/>
   </g>
  </g>
 </g>
</svg>
